<?xml version="1.0" encoding="utf-8"?>
<!-- Generator: Adobe Illustrator 26.1.0, SVG Export Plug-In . SVG Version: 6.00 Build 0)  -->
<svg version="1.1" id="Layer_1" xmlns="http://www.w3.org/2000/svg" xmlns:xlink="http://www.w3.org/1999/xlink" x="0px" y="0px"
	 viewBox="0 0 176.7 120.9" style="enable-background:new 0 0 176.7 120.9;" xml:space="preserve">
<style type="text/css">
	.st0{fill:#B6AA7C;}
</style>
<g>
	<g>
		<path class="st0" d="M46.5,42.5l12,0l0,6l-12,0V42.5z M46.5,78.4h12l0,6h-12V78.4z M58.4,48.5l12,0v6l-12,0V48.5z M58.4,72.4l12,0
			v6l-12,0V72.4z M70.4,54.4l12,0v6l-12,0V54.4z M70.4,66.4l12,0v6h-12L70.4,66.4z M82.4,60.4h6v6h-6V60.4z M88.3,60.4l6,0l0,6h-6
			V60.4z"/>
	</g>
	<g>
		<path class="st0" d="M82.4,42.5l12,0v6l-12,0V42.5z M82.4,78.4l12,0v6l-12,0V78.4z M94.3,48.5l12,0v6l-12,0V48.5z M94.3,72.4h12v6
			h-12V72.4z M106.3,54.4l12,0v6l-12,0V54.4z M106.3,66.4h12l0,6l-12,0V66.4z M118.2,60.4h6v6l-6,0V60.4z M124.2,60.4l6,0v6h-6V60.4
			z"/>
	</g>
</g>
</svg>
