<svg fill="white" width="300" height="100" xmlns="http://www.w3.org/2000/svg" version="1.1" xml:space="preserve">
 <g id="Layer_1">
  <title>Layer 1</title>
  <g stroke="null" id="svg_1">
   <g stroke="null" id="svg_2">
    <path stroke="null" d="m8.14219,49.45881c0,0.2506 -0.06265,0.50121 -0.1253,0.75181c-0.1253,0.81446 -0.2506,1.62893 -0.31326,2.44339c0.56386,0.18795 1.12772,0.18795 1.69158,0.31326c0,1.25302 0.06265,2.5687 0.31326,3.82172c0.37591,-0.06265 0.75181,-0.1253 1.06507,-0.06265c-0.18795,0.43856 -0.43856,0.81446 -0.68916,1.25302c-0.87712,1.44098 -1.81688,3.13256 -2.06749,4.82414c0.06265,0.06265 0.18795,0.1253 0.18795,0.18795c0.06265,0.62651 0,1.25302 0.06265,1.94218c0.06265,0.62651 0.06265,1.44098 0.37591,2.00484c0.56386,-0.06265 1.12772,-0.06265 1.69158,-0.06265c0.1253,0.18795 0.18795,0.43856 0.2506,0.68916c0.2506,1.00242 0.62651,1.87953 0.93977,2.8193c0.56386,-0.1253 1.12772,-0.31326 1.69158,-0.43856c0.56386,0.93977 1.00242,2.06749 1.50363,3.00725c0.56386,-0.18795 1.06507,-0.50121 1.62893,-0.62651c0.37591,0.37591 0.62651,0.81446 1.00242,1.19037c0.31326,0.50121 0.81446,0.81446 1.12772,1.31567c0.18795,0.1253 0.37591,0.56386 0.68916,0.37591c0.31326,-0.31326 0.75181,-0.56386 1.06507,-0.87712c0.37591,-0.06265 0.75181,0.50121 1.06507,0.68916c0.62651,0.50121 1.25302,0.93977 1.94218,1.44098c0.18795,-0.06265 0.2506,-0.31326 0.43856,-0.43856c0.2506,-0.2506 0.37591,-0.50121 0.56386,-0.75181c0.1253,0 0.2506,0.06265 0.37591,0.1253c0.87712,0.50121 1.75423,1.00242 2.694,1.44098c0.06265,0.06265 0.18795,0.06265 0.2506,0.06265c0.31326,-0.50121 0.50121,-1.06507 0.93977,-1.50363c1.25302,0.31326 2.38074,0.75181 3.75907,0.81446l0.06265,-0.06265c0.1253,-0.50121 0.18795,-1.06507 0.37591,-1.56628c0.1253,-0.1253 0.37591,-0.06265 0.56386,-0.06265c0.75181,0.06265 1.56628,0.06265 2.31809,0.06265c0.2506,0 0.50121,0 0.68916,-0.1253c0,-0.50121 0,-0.93977 0,-1.44098c0.31326,-0.1253 0.62651,-0.1253 0.93977,-0.18795c0.93977,-0.1253 1.87953,-0.37591 2.8193,-0.68916c-0.1253,-0.56386 -0.31326,-1.12772 -0.43856,-1.69158c1.19037,-0.37591 2.38074,-0.75181 3.50846,-1.19037l0.06265,-0.06265c-0.1253,-0.62651 -0.43856,-1.19037 -0.43856,-1.81688c1.00242,-0.68916 2.13014,-1.31567 3.00725,-2.19279c-0.37591,-0.37591 -0.62651,-0.87712 -0.93977,-1.31567c0.2506,-0.37591 0.68916,-0.68916 0.93977,-1.00242c0.62651,-0.56386 1.12772,-1.25302 1.62893,-1.94218c-0.43856,-0.31326 -0.87712,-0.75181 -1.31567,-1.00242c-0.06265,-0.06265 -0.06265,-0.18795 0,-0.31326c0.62651,-0.87712 1.31567,-1.81688 1.87953,-2.75665c-0.37591,-0.37591 -0.87712,-0.68916 -1.25302,-1.00242c0,-0.31326 0.18795,-0.62651 0.31326,-0.93977c0.37591,-0.93977 0.62651,-1.87953 0.87712,-2.88195c-0.2506,-0.06265 -0.18795,-0.18795 -0.1253,-0.37591c0.18795,-0.18795 0.37591,-0.37591 0.56386,-0.62651c-0.62651,0 -1.31567,0 -1.94218,0c0.06265,-0.87712 0.31326,-1.69158 0.37591,-2.5687c0,-0.2506 0.1253,-0.50121 0,-0.75181c-0.50121,-0.06265 -1.00242,-0.1253 -1.50363,-0.18795l-0.1253,-0.1253c0,-1.25302 -0.1253,-2.50604 -0.31326,-3.75907c-0.37591,-0.06265 -0.75181,0.1253 -1.12772,0.06265c0.06265,-0.2506 0.18795,-0.43856 0.31326,-0.68916c1.00242,-1.69158 2.06749,-3.44581 2.44339,-5.45065c-0.50121,-0.2506 -0.18795,-0.62651 -0.2506,-1.06507c-0.06265,-0.93977 -0.06265,-1.81688 -0.2506,-2.75665c0,-0.1253 -0.06265,-0.2506 -0.1253,-0.31326c-0.56386,0 -1.19037,0.18795 -1.75423,0c-0.2506,-1.19037 -0.62651,-2.31809 -1.12772,-3.44581c-0.43856,0.06265 -0.87712,0.2506 -1.31567,0.37591c-0.18795,0.06265 -0.37591,0.1253 -0.43856,-0.1253c-0.50121,-0.93977 -0.93977,-1.94218 -1.44098,-2.88195c-0.56386,0.18795 -1.12772,0.56386 -1.69158,0.62651c-0.56386,-0.68916 -1.12772,-1.37832 -1.69158,-2.06749c-0.31326,-0.31326 -0.56386,-0.62651 -0.81446,-0.93977c-0.43856,0.37591 -0.87712,0.68916 -1.25302,1.06507c-0.2506,0.06265 -0.31326,-0.1253 -0.43856,-0.2506c-0.81446,-0.62651 -1.62893,-1.31567 -2.50604,-1.87953c-0.2506,0.1253 -0.2506,0.37591 -0.43856,0.56386c-0.18795,0.18795 -0.31326,0.50121 -0.56386,0.62651c-1.06507,-0.50121 -2.13014,-1.19037 -3.25786,-1.62893c-0.31326,0.43856 -0.62651,1.00242 -0.87712,1.50363c-0.31326,0.06265 -0.50121,-0.06265 -0.81446,-0.18795c-1.00242,-0.31326 -2.06749,-0.56386 -3.13256,-0.62651c-0.1253,0.43856 -0.18795,0.93977 -0.31326,1.37832c-0.06265,0.18795 -0.06265,0.37591 -0.31326,0.37591c-0.56386,-0.06265 -1.12772,-0.06265 -1.69158,-0.1253c-0.56386,-0.06265 -1.12772,0.06265 -1.62893,0.06265c-0.1253,0.50121 -0.06265,1.00242 -0.06265,1.56628c-1.25302,0.18795 -2.50604,0.43856 -3.69642,0.87712c0.1253,0.56386 0.37591,1.12772 0.37591,1.75423c-1.19037,0.37591 -2.38074,0.75181 -3.57111,1.12772c0.06265,0.62651 0.43856,1.25302 0.43856,1.94218c-1.06507,0.56386 -2.00484,1.31567 -2.9446,2.06749c0.2506,0.50121 0.68916,0.93977 0.93977,1.37832c-0.93977,0.93977 -1.87953,1.75423 -2.63135,2.9446c0.37591,0.31326 0.81446,0.62651 1.25302,0.93977c0.18795,0.1253 0.1253,0.37591 0,0.50121c-0.62651,0.87712 -1.25302,1.69158 -1.81688,2.63135c0.43856,0.31326 0.87712,0.62651 1.25302,1.00242c-0.06265,0.37591 -0.2506,0.68916 -0.37591,1.06507c-0.31326,0.87712 -0.56386,1.75423 -0.81446,2.63135c0.1253,0.18795 0.18795,0.18795 0.1253,0.43856c-0.1253,0.2506 -0.43856,0.43856 -0.56386,0.68916c0.62651,0.06265 1.31567,0.06265 1.94218,0.06265zm1.56628,1.12772c0,0.06265 -0.06265,0.18795 -0.06265,0.2506l0,0l0,0c-0.06265,0.18795 -0.1253,0.31326 -0.1253,0.50121l-0.1253,0l-0.1253,-0.43856l0.2506,0l0.06265,-0.06265c0,0 0,0 0,0l-0.2506,0c0.18795,-1.12772 0.37591,-2.19279 0.75181,-3.19521c0.18795,-0.31326 0.56386,-0.43856 0.87712,-0.68916c0.31326,-0.2506 0.68916,-0.37591 1.00242,-0.68916l0.06265,0.06265l0,0.2506c-0.31326,0.2506 -0.43856,0.56386 -0.68916,0.87712c-0.68916,0.93977 -1.19037,2.00484 -1.62893,3.13256zm0.1253,-6.57837c0.1253,-0.43856 0.37591,-0.81446 0.62651,-1.19037c0.31326,-0.2506 0.43856,0.43856 0.43856,0.62651c-0.31326,0.18795 -0.75181,0.31326 -1.06507,0.56386zm36.77621,12.53022c-0.37591,0.31326 -0.50121,0.68916 -0.87712,1.00242c-0.1253,0.31326 -0.37591,0.56386 -0.56386,0.81446c-0.18795,0.37591 -0.43856,0.75181 -0.75181,1.06507c-0.93977,1.31567 -2.19279,2.50604 -3.50846,3.44581c-0.18795,0.1253 -0.43856,0.18795 -0.56386,0.37591c1.37832,-0.37591 2.75665,-0.87712 4.00967,-1.62893c0.62651,-0.2506 1.19037,-0.75181 1.62893,-1.25302c-0.31326,0.50121 -0.87712,0.93977 -1.19037,1.44098c-0.50121,0.56386 -1.06507,1.06507 -1.75423,1.50363c-1.50363,1.12772 -3.19521,2.00484 -4.88679,2.63135c1.56628,0.06265 2.9446,-0.18795 4.38558,-0.81446c0.68916,-0.18795 1.37832,-0.56386 2.00484,-0.93977c0.06265,0 0.18795,-0.06265 0.2506,-0.06265c-0.31326,0.06265 -0.43856,0.31326 -0.68916,0.43856c-0.31326,0.31326 -0.62651,0.43856 -0.93977,0.75181c-2.25544,1.50363 -4.82414,2.44339 -7.45548,2.88195l0,0.06265c0.50121,-0.1253 1.00242,-0.06265 1.50363,-0.06265c1.19037,0 2.44339,-0.06265 3.63377,-0.18795c0.2506,0 0.50121,0 0.75181,0c-0.18795,0.2506 -0.50121,0.18795 -0.75181,0.37591c-1.94218,0.62651 -3.88437,1.19037 -5.88921,1.31567c-0.68916,0 -1.37832,-0.06265 -2.06749,0.06265c1.75423,0.37591 3.32051,0.93977 5.20004,0.93977l0.06265,0.18795l-0.06265,0.1253c-0.68916,0.18795 -1.44098,0.2506 -2.13014,0.37591c-2.13014,0.18795 -4.32293,-0.06265 -6.32776,-0.75181c0.06265,0.1253 0.31326,0.18795 0.43856,0.31326c1.25302,0.81446 2.694,1.19037 4.13497,1.56628c0.31326,0.31326 0.68916,-0.1253 0.81446,0.37591c-0.43856,0 -0.93977,0.06265 -1.37832,0c-2.25544,-0.18795 -4.38558,-0.75181 -6.45307,-1.56628c-0.2506,-0.1253 -0.50121,-0.2506 -0.75181,-0.31326c0.75181,0.87712 1.75423,1.56628 2.75665,2.13014c0.75181,0.37591 1.50363,0.62651 2.25544,1.06507c0.1253,0.1253 0.43856,0.06265 0.50121,0.2506c0.1253,0 0.2506,0 0.43856,0.1253c-1.12772,-0.1253 -2.25544,-0.2506 -3.32051,-0.75181c-1.94218,-0.68916 -3.69642,-1.81688 -5.32535,-3.00725c-0.1253,-0.1253 -0.2506,-0.31326 -0.43856,-0.31326c0.87712,1.31567 1.94218,2.50604 3.19521,3.50846c0.50121,0.50121 1.00242,0.93977 1.62893,1.31567c-0.31326,-0.1253 -0.56386,-0.37591 -0.87712,-0.43856c-0.37591,-0.18795 -0.68916,-0.37591 -1.12772,-0.50121c-1.81688,-1.00242 -3.57111,-2.25544 -5.01209,-3.75907c-0.2506,-0.2506 -0.50121,-0.68916 -0.81446,-0.87712c0.68916,1.31567 1.31567,2.5687 2.31809,3.63377c0.2506,0.56386 0.81446,1.00242 1.25302,1.50363c-0.2506,-0.1253 -0.43856,-0.31326 -0.62651,-0.50121c-0.31326,-0.1253 -0.43856,-0.37591 -0.75181,-0.50121c-0.18795,-0.06265 -0.31326,-0.2506 -0.50121,-0.37591c-1.94218,-1.50363 -3.63377,-3.44581 -4.57353,-5.7639c0.1253,0.68916 0.2506,1.37832 0.50121,2.00484c0.37591,1.12772 0.87712,2.13014 1.37832,3.19521c0.1253,0.37591 0.50121,0.56386 0.56386,1.00242c-0.37591,-0.50121 -0.81446,-1.06507 -1.31567,-1.50363c-0.18795,-0.31326 -0.43856,-0.50121 -0.62651,-0.81446c-1.31567,-1.75423 -2.63135,-3.88437 -2.8193,-6.13981c0,0.06265 -0.06265,0.1253 -0.06265,0.18795c0,0.93977 0,1.87953 0.18795,2.8193c0.1253,0.75181 0.37591,1.50363 0.43856,2.25544c0.18795,0.2506 0.18795,0.68916 0.37591,0.93977c-0.18795,-0.2506 -0.31326,-0.56386 -0.37591,-0.87712c-0.31326,-0.43856 -0.62651,-1.00242 -0.81446,-1.50363c-0.75181,-1.50363 -1.37832,-3.00725 -1.50363,-4.63618c0,-0.62651 0.06265,-1.31567 -0.06265,-1.94218c-0.68916,1.75423 -0.62651,3.57111 -0.31326,5.388c0.06265,0.31326 0,0.62651 0,0.93977c0.06265,0.06265 0.1253,0.1253 0.1253,0.18795c-0.06265,0.06265 -0.06265,0.1253 -0.1253,0.2506l0,-0.2506c-0.2506,-0.2506 -0.2506,-0.62651 -0.43856,-0.87712c-0.2506,-0.68916 -0.43856,-1.44098 -0.56386,-2.19279c-0.43856,-1.87953 -0.37591,-3.75907 -0.18795,-5.6386c0.06265,-0.2506 0.1253,-0.50121 0.06265,-0.75181c-0.2506,0.68916 -0.56386,1.31567 -0.75181,2.06749c-0.31326,0.93977 -0.43856,1.94218 -0.62651,2.88195c-0.06265,0.2506 -0.06265,0.56386 -0.18795,0.81446c-0.1253,0.2506 0,0.56386 -0.1253,0.75181c-0.06265,-0.37591 -0.06265,-0.68916 -0.18795,-1.00242c-0.37591,-2.8193 0.50121,-5.7639 1.19037,-8.4579c0.1253,-0.37591 0.1253,-0.37591 0.50121,-0.37591l0.1253,0.2506c0.2506,1.19037 0.62651,2.31809 1.06507,3.44581l0.06265,0.06265c0.43856,-0.1253 0.87712,-0.37591 1.31567,-0.50121c0.06265,0 0.18795,0.06265 0.2506,0.1253c0.43856,1.12772 1.00242,2.19279 1.69158,3.19521c0.62651,-0.1253 1.19037,-0.56386 1.81688,-0.68916c0.62651,0.87712 1.31567,1.81688 2.06749,2.63135c0.2506,-0.18795 0.43856,-0.43856 0.75181,-0.62651c0.2506,-0.18795 0.43856,-0.56386 0.75181,-0.50121c1.00242,0.87712 2.00484,1.75423 3.13256,2.50604c0.31326,-0.43856 0.62651,-0.87712 0.87712,-1.31567c0.06265,0 0.18795,0 0.2506,0c1.00242,0.62651 2.06749,1.06507 3.19521,1.50363c0.2506,-0.50121 0.43856,-1.12772 0.75181,-1.62893c1.25302,0.31326 2.50604,0.56386 3.75907,0.81446c0.1253,-0.43856 0.18795,-0.87712 0.31326,-1.37832c0.06265,-0.1253 0.1253,-0.1253 0.2506,-0.1253c1.19037,0.1253 2.38074,0.18795 3.57111,0.06265c-0.06265,-0.56386 -0.06265,-1.12772 -0.06265,-1.69158c1.25302,-0.06265 2.694,-0.2506 3.82172,-0.68916c-0.06265,-0.56386 -0.18795,-1.12772 -0.2506,-1.69158c0,-0.1253 0.06265,-0.18795 0.1253,-0.2506c0.31326,-0.1253 0.68916,-0.18795 1.00242,-0.2506c0,0.31326 -0.18795,0.37591 -0.37591,0.62651c1.25302,-0.2506 2.38074,-1.44098 3.32051,-2.19279c0.31326,-0.31326 0.56386,-0.62651 0.87712,-0.93977c0.1253,-0.18795 0.18795,-0.50121 0.50121,-0.68916zm-2.88195,0.56386c0.2506,-0.2506 0.81446,-0.43856 1.06507,-0.62651c-0.1253,0.43856 -0.43856,0.81446 -0.62651,1.19037c-0.2506,0 -0.37591,-0.37591 -0.43856,-0.56386zm0.50121,-5.57595c0.50121,-1.00242 1.00242,-2.19279 1.19037,-3.25786l0,0c0,0.31326 0.06265,0.56386 -0.06265,0.87712c-0.18795,1.31567 -0.37591,2.50604 -0.81446,3.75907c-0.18795,0.2506 -0.56386,0.43856 -0.81446,0.62651c-0.31326,0.2506 -0.68916,0.50121 -1.00242,0.62651c0,-0.18795 0.06265,-0.31326 0.18795,-0.43856c0.43856,-0.75181 0.93977,-1.44098 1.31567,-2.19279zm-1.62893,2.25544c0,0.1253 0,0.31326 0,0.43856c-0.93977,0.62651 -1.94218,1.12772 -2.9446,1.56628l-0.06265,0.06265c1.31567,-0.2506 2.63135,-0.50121 3.94702,-0.81446c0,0.18795 -0.06265,0.37591 -0.18795,0.56386c-2.00484,1.12772 -4.32293,1.81688 -6.51572,2.38074l-0.06265,0.06265c0.75181,0.1253 1.50363,0.2506 2.31809,0.2506c1.06507,0 2.06749,-0.18795 3.13256,-0.31326c0.31326,-0.18795 0.75181,-0.18795 1.06507,-0.37591c-0.18795,0.18795 -0.37591,0.2506 -0.62651,0.2506c0,0.1253 -0.1253,0.18795 -0.31326,0.1253l-0.06265,0.1253c-0.43856,0.1253 -0.87712,0.37591 -1.31567,0.50121c-2.31809,0.68916 -4.69883,0.81446 -7.07958,0.87712c1.81688,0.68916 3.82172,0.93977 5.82655,1.06507c0.31326,0.06265 0.68916,0 1.00242,0.06265c-0.18795,0.06265 -0.37591,-0.06265 -0.50121,0.1253c-0.18795,0 -0.31326,0.06265 -0.50121,0.18795c-3.0699,0.62651 -6.01451,0.18795 -9.02176,-0.56386c0.06265,0.1253 0.2506,0.18795 0.37591,0.2506c1.12772,0.75181 2.31809,1.37832 3.63377,1.81688c0.2506,0.1253 0.56386,0.1253 0.75181,0.31326c0.2506,0.06265 0.56386,0 0.81446,0.1253c-0.56386,0 -1.12772,0.06265 -1.69158,0c-2.13014,-0.18795 -4.19763,-0.81446 -6.13981,-1.69158c-0.31326,-0.1253 -0.62651,-0.37591 -0.93977,-0.43856c0.43856,0.43856 0.81446,0.87712 1.31567,1.25302c0.81446,0.75181 1.75423,1.12772 2.63135,1.69158c0.37591,0.1253 0.81446,0.37591 1.25302,0.37591l0,0.06265c-0.18795,0 -0.31326,-0.06265 -0.43856,-0.1253c-0.18795,-0.06265 -0.31326,0 -0.50121,-0.1253c-1.19037,-0.06265 -2.44339,-0.50121 -3.50846,-0.93977c-1.06507,-0.43856 -2.00484,-1.00242 -2.88195,-1.69158c-0.37591,-0.31326 -0.62651,-0.62651 -1.00242,-0.93977c0.68916,1.31567 1.75423,2.38074 2.8193,3.32051c0.56386,0.31326 0.93977,0.93977 1.50363,1.12772c0.1253,0.06265 0.18795,0.1253 0.2506,0.2506c-0.06265,-0.06265 -0.1253,-0.1253 -0.18795,-0.18795l-0.2506,0c-0.37591,-0.18795 -0.81446,-0.37591 -1.25302,-0.50121c-0.75181,-0.37591 -1.50363,-0.87712 -2.25544,-1.37832c-1.50363,-1.06507 -2.75665,-2.38074 -4.00967,-3.69642c0.37591,0.93977 0.75181,1.81688 1.25302,2.694c0.43856,0.68916 0.75181,1.37832 1.31567,1.94218c-0.43856,-0.37591 -0.75181,-0.75181 -1.25302,-1.00242c-0.68916,-0.68916 -1.37832,-1.31567 -2.00484,-2.13014c-0.75181,-0.93977 -1.50363,-2.00484 -1.94218,-3.13256c0,0.68916 0.18795,1.37832 0.37591,2.06749c0.18795,0.75181 0.50121,1.44098 0.68916,2.19279c0.2506,0.56386 0.56386,1.00242 0.87712,1.50363c-0.50121,-0.56386 -0.87712,-1.31567 -1.44098,-1.81688c-1.37832,-1.94218 -2.44339,-4.13497 -3.25786,-6.39041c0,0.43856 0,0.93977 0,1.37832c0.06265,0.93977 0.31326,1.75423 0.56386,2.63135c0.2506,0.81446 0.56386,1.56628 0.62651,2.44339c0.1253,0.06265 0.06265,0.31326 0.06265,0.43856c-0.06265,-0.1253 -0.06265,-0.2506 -0.1253,-0.37591c-0.1253,-0.18795 -0.2506,-0.37591 -0.43856,-0.50121c-1.62893,-2.8193 -2.19279,-5.82655 -2.50604,-8.95911c0,1.12772 -0.31326,2.19279 -0.37591,3.32051c-0.1253,0.62651 -0.06265,1.50363 -0.1253,2.06749c-0.31326,0 -0.1253,-0.37591 -0.31326,-0.56386c-0.56386,-2.19279 -0.62651,-4.63618 -0.37591,-6.89162c0,-0.1253 0,-0.2506 0,-0.37591c-0.50121,1.44098 -1.12772,2.88195 -1.44098,4.38558c-0.18795,0.31326 -0.1253,0.56386 -0.18795,0.87712l-0.1253,0c0,-0.1253 0,-0.2506 0,-0.37591c-0.18795,-0.37591 -0.1253,-0.87712 -0.1253,-1.25302c-0.06265,-2.25544 0.31326,-4.51088 1.12772,-6.57837c0.06265,-0.2506 0.2506,-0.43856 0.1253,-0.68916c0.31326,-0.31326 0.75181,-0.50121 1.12772,-0.68916c0.62651,-0.37591 1.25302,-0.62651 1.81688,-0.87712c-1.00242,0.1253 -1.94218,0.37591 -2.88195,0.56386c-0.31326,0.06265 -0.68916,0.2506 -1.00242,0.1253c0.06265,-0.1253 0.1253,-0.31326 0.18795,-0.43856c2.00484,-1.12772 4.32293,-1.87953 6.57837,-2.38074c-0.06265,-0.06265 -0.1253,-0.1253 -0.18795,-0.1253c-0.68916,-0.1253 -1.44098,-0.18795 -2.13014,-0.2506c-1.19037,0 -2.50604,0.2506 -3.63377,0.43856c-0.18795,0.1253 -0.37591,0.1253 -0.56386,0.2506c0.1253,-0.18795 0.43856,-0.18795 0.56386,-0.31326c0.06265,-0.06265 0.18795,-0.06265 0.31326,0c0,-0.2506 0.50121,-0.2506 0.62651,-0.37591c2.38074,-0.93977 5.26269,-1.12772 7.83139,-1.12772c-0.1253,-0.1253 -0.31326,-0.1253 -0.50121,-0.18795c-1.75423,-0.56386 -3.57111,-0.81446 -5.388,-0.87712c-0.31326,-0.06265 -0.62651,0 -0.87712,-0.06265l0.2506,0c0.18795,-0.2506 0.43856,-0.1253 0.62651,-0.31326c1.44098,-0.37591 2.694,-0.31326 4.19763,-0.31326c1.69158,0.1253 3.38316,0.43856 5.01209,0.87712c-1.25302,-0.87712 -2.50604,-1.56628 -3.94702,-2.06749c-0.31326,-0.1253 -0.62651,-0.1253 -0.87712,-0.31326c-0.1253,-0.06265 -0.50121,0.06265 -0.56386,-0.1253c0.18795,-0.06265 0.50121,0.06265 0.62651,-0.1253c2.75665,0.1253 5.45065,0.93977 7.89404,2.25544c-0.18795,-0.2506 -0.43856,-0.50121 -0.68916,-0.75181c-0.87712,-0.87712 -1.87953,-1.50363 -3.00725,-2.06749c-0.18795,-0.18795 -0.50121,-0.18795 -0.68916,-0.37591c-0.37591,0.06265 -0.43856,-0.18795 -0.75181,-0.1253l0,-0.06265c0.18795,0 0.2506,0 0.43856,0.1253c0.18795,0 0.37591,-0.06265 0.50121,0.1253c1.44098,0.1253 2.88195,0.62651 4.13497,1.25302c1.19037,0.62651 2.38074,1.37832 3.19521,2.44339c-0.50121,-0.93977 -1.19037,-1.81688 -1.87953,-2.5687c-0.50121,-0.56386 -1.19037,-0.93977 -1.69158,-1.56628c-0.37591,-0.18795 -0.68916,-0.56386 -1.12772,-0.68916c0.56386,0.18795 1.12772,0.50121 1.69158,0.62651c1.25302,0.62651 2.38074,1.44098 3.44581,2.31809c0.31326,0.31326 0.62651,0.62651 1.00242,0.93977c0.68916,0.56386 1.19037,1.25302 1.75423,1.81688c-0.43856,-1.00242 -0.81446,-2.00484 -1.44098,-2.9446c-0.1253,-0.18795 -0.1253,-0.43856 -0.31326,-0.56386c-0.18795,-0.18795 -0.2506,-0.37591 -0.18795,-0.68916c0.06265,0.06265 0.06265,0.18795 0.1253,0.2506c0.68916,0.50121 1.31567,1.00242 1.81688,1.69158c1.06507,1.19037 1.87953,2.38074 2.63135,3.82172c-0.06265,-1.19037 -0.43856,-2.38074 -0.81446,-3.50846c-0.18795,-0.75181 -0.56386,-1.37832 -1.00242,-2.00484l0.06265,0c0.43856,0.56386 0.81446,1.19037 1.31567,1.69158c1.25302,1.81688 2.25544,3.75907 2.9446,5.7639c0.06265,0.1253 0.06265,0.31326 0.18795,0.43856c0.06265,-0.31326 0.06265,-0.62651 0.06265,-0.87712c-0.06265,-1.56628 -0.62651,-3.13256 -1.06507,-4.63618c-0.06265,-0.43856 -0.18795,-0.81446 -0.2506,-1.25302c0.1253,0.06265 0,0.2506 0.18795,0.31326c0.50121,0.56386 0.81446,1.19037 1.06507,1.87953c1.06507,2.38074 1.50363,4.82414 1.81688,7.39283c0.1253,-1.62893 0.56386,-3.0699 0.50121,-4.63618c0,-0.2506 0.1253,-0.50121 0.1253,-0.81446c0.18795,0.18795 0.06265,0.50121 0.2506,0.75181c0.62651,2.44339 0.62651,4.88679 0.37591,7.39283c0.1253,-0.06265 0.1253,-0.2506 0.18795,-0.43856c0.43856,-1.12772 0.87712,-2.25544 1.19037,-3.44581c0.06265,-0.31326 0.06265,-0.62651 0.18795,-0.87712c0.1253,-0.50121 0,-1.12772 0.1253,-1.62893c-0.06265,0.37591 0,0.68916 0,1.06507l0.1253,0.06265c0.43856,2.8193 0.06265,5.82655 -1.00242,8.4579zm-33.7063,-10.9013c0.1253,-0.37591 0.43856,-0.68916 0.68916,-1.00242c0.18795,-0.43856 0.50121,-0.75181 0.81446,-1.19037c0.75181,-1.00242 1.69158,-1.94218 2.694,-2.694c0.37591,-0.31326 0.87712,-0.56386 1.25302,-0.87712c-1.19037,0.31326 -2.38074,0.68916 -3.44581,1.31567c-0.68916,0.43856 -1.37832,0.62651 -1.94218,1.31567c-0.1253,0.18795 -0.31326,0.2506 -0.50121,0.37591c0.56386,-0.50121 1.06507,-1.12772 1.56628,-1.69158c1.81688,-1.81688 4.13497,-3.13256 6.51572,-4.00967c-1.50363,-0.18795 -3.19521,0.31326 -4.57353,0.87712c-0.62651,0.18795 -1.25302,0.50121 -1.81688,0.87712c0.37591,-0.31326 0.81446,-0.62651 1.19037,-0.93977c0.2506,-0.31326 0.62651,-0.50121 1.00242,-0.68916c1.69158,-1.00242 3.50846,-1.69158 5.45065,-2.19279c0.43856,-0.1253 0.81446,-0.18795 1.31567,-0.2506c-1.37832,0 -2.8193,0 -4.19763,0.1253c-0.37591,0.06265 -0.81446,0 -1.19037,0.1253l-0.06265,-0.18795l0.06265,-0.1253c2.694,-0.93977 5.388,-1.56628 8.26995,-1.44098c-1.44098,-0.31326 -2.8193,-0.81446 -4.32293,-0.93977c-0.43856,0 -0.87712,0 -1.31567,-0.18795c0.31326,-0.18795 0.50121,-0.2506 0.81446,-0.31326c2.5687,-0.50121 5.26269,-0.37591 7.70609,0.37591l0.2506,0c-0.1253,-0.06265 -0.31326,-0.18795 -0.43856,-0.2506c-1.37832,-0.87712 -3.00725,-1.31567 -4.57353,-1.62893c-0.31326,-0.18795 -0.75181,-0.06265 -1.06507,-0.18795c0.43856,0 0.93977,-0.06265 1.37832,-0.1253c2.75665,0.06265 5.45065,0.81446 8.01934,1.94218c-0.56386,-0.75181 -1.50363,-1.44098 -2.31809,-1.87953c-0.81446,-0.50121 -1.75423,-0.81446 -2.63135,-1.31567c-0.1253,-0.1253 -0.37591,-0.06265 -0.43856,-0.2506c-0.1253,-0.06265 -0.37591,0.06265 -0.37591,-0.1253c0.56386,0.06265 1.25302,0.18795 1.81688,0.2506c2.50604,0.62651 4.82414,2.00484 6.82897,3.57111c0.1253,0.06265 0.18795,0.1253 0.31326,0.18795c-0.75181,-1.25302 -1.75423,-2.19279 -2.75665,-3.13256c-0.2506,-0.31326 -0.62651,-0.43856 -0.87712,-0.81446c-0.37591,-0.18795 -0.62651,-0.56386 -1.00242,-0.68916c0.56386,0.1253 1.00242,0.50121 1.56628,0.68916c1.19037,0.62651 2.38074,1.37832 3.44581,2.25544c0.81446,0.62651 1.50363,1.37832 2.19279,2.06749c0.18795,0.18795 0.31326,0.50121 0.50121,0.62651c-0.62651,-1.19037 -1.25302,-2.38074 -2.06749,-3.44581c-0.43856,-0.62651 -0.81446,-1.19037 -1.31567,-1.69158c0.50121,0.31326 0.93977,0.75181 1.50363,1.00242c1.75423,1.44098 3.50846,3.13256 4.44823,5.26269c0.1253,0.18795 0.18795,0.43856 0.31326,0.62651c-0.18795,-0.81446 -0.31326,-1.62893 -0.62651,-2.44339c-0.2506,-0.75181 -0.68916,-1.50363 -0.93977,-2.25544c-0.2506,-0.43856 -0.50121,-0.93977 -0.87712,-1.37832c0.37591,0.37591 0.75181,0.75181 1.06507,1.19037c0.37591,0.2506 0.56386,0.62651 0.87712,0.93977c1.25302,1.62893 2.31809,3.32051 2.75665,5.32535c0.06265,0.37591 0.1253,0.68916 0.18795,1.06507c0,-0.2506 -0.06265,-0.43856 -0.06265,-0.68916c0.1253,-1.37832 -0.18795,-2.75665 -0.43856,-4.07232c-0.06265,-0.18795 0,-0.43856 -0.1253,-0.56386c0,-0.18795 -0.06265,-0.31326 -0.1253,-0.37591c0,-0.18795 -0.06265,-0.31326 -0.18795,-0.50121c0.06265,0 0.06265,0.06265 0.1253,0.1253c0.18795,0.43856 0.50121,1.06507 0.75181,1.44098c0.2506,0.50121 0.50121,1.06507 0.75181,1.56628c0.81446,1.75423 1.25302,3.63377 1.00242,5.57595c0.31326,-0.62651 0.50121,-1.69158 0.56386,-2.44339c0.06265,-1.25302 -0.1253,-2.50604 -0.2506,-3.75907c0,-0.1253 -0.06265,-0.31326 0.06265,-0.31326c0,0.1253 0,0.2506 0.06265,0.37591c0.18795,0.06265 0.18795,0.37591 0.31326,0.50121c0.56386,1.44098 0.81446,3.00725 0.87712,4.51088c0.06265,1.37832 -0.06265,2.75665 -0.18795,4.13497c0.18795,-0.37591 0.31326,-0.75181 0.43856,-1.12772c0.68916,-1.81688 0.81446,-3.57111 1.19037,-5.5133c0,0.31326 0.06265,0.56386 0.18795,0.87712c0.2506,1.87953 0,3.82172 -0.43856,5.70125c-0.2506,1.12772 -0.50121,2.25544 -0.81446,3.38316c-0.1253,0 -0.31326,0.06265 -0.43856,0.06265c-0.31326,-1.19037 -0.56386,-2.38074 -1.12772,-3.57111l-0.1253,-0.18795c-0.43856,0.18795 -1.00242,0.56386 -1.50363,0.50121c-0.43856,-1.19037 -1.06507,-2.25544 -1.75423,-3.32051c-0.62651,0.06265 -1.12772,0.50121 -1.69158,0.68916c-0.37591,-0.1253 -0.62651,-0.68916 -0.87712,-0.93977c-0.37591,-0.62651 -0.87712,-1.06507 -1.31567,-1.62893c-0.2506,0.18795 -0.50121,0.50121 -0.75181,0.62651c-0.2506,0.18795 -0.43856,0.56386 -0.75181,0.43856c-1.00242,-0.87712 -2.00484,-1.75423 -3.13256,-2.50604c-0.2506,0.43856 -0.62651,0.87712 -0.87712,1.37832c-0.37591,0.06265 -0.50121,-0.18795 -0.81446,-0.31326c-0.81446,-0.43856 -1.75423,-0.93977 -2.694,-1.12772c-0.18795,0.43856 -0.37591,0.81446 -0.56386,1.25302c-0.06265,0.18795 -0.1253,0.31326 -0.37591,0.2506c-0.87712,-0.18795 -1.81688,-0.43856 -2.694,-0.56386c-0.31326,-0.06265 -0.62651,-0.18795 -0.87712,-0.1253c-0.06265,0.43856 -0.1253,0.93977 -0.2506,1.37832l-0.1253,0.1253c-1.19037,-0.1253 -2.38074,-0.18795 -3.63377,-0.06265c-0.1253,0.2506 0,0.62651 -0.06265,0.87712c0,0.2506 0.1253,0.62651 -0.06265,0.81446c-1.25302,0.1253 -2.63135,0.2506 -3.75907,0.75181c0.1253,0.31326 0.1253,0.62651 0.18795,1.00242c0.06265,0.31326 0.1253,0.56386 0.06265,0.87712c-0.43856,0.1253 -0.87712,0.2506 -1.31567,0.37591c0.06265,-0.06265 0.06265,-0.1253 0.18795,-0.1253c0,-0.31326 0.37591,-0.43856 0.56386,-0.68916c-0.43856,0.1253 -0.81446,0.31326 -1.25302,0.56386c-0.81446,0.43856 -1.37832,1.06507 -2.13014,1.62893c-0.56386,0.56386 -1.00242,1.12772 -1.50363,1.75423c0.1253,-0.43856 0.37591,-0.75181 0.62651,-1.06507z" id="svg_1"/>
   </g>
   <path stroke="null" d="m89.08743,62.86615c-0.43856,0.50121 -1.00242,1.00242 -1.56628,1.44098c-1.00242,0.81446 -2.13014,1.37832 -3.25786,1.87953c-1.31567,0.50121 -2.63135,0.75181 -4.00967,0.87712c-2.13014,0.1253 -4.26028,-0.18795 -6.26511,-0.81446c-1.94218,-0.68916 -3.75907,-1.62893 -5.45065,-2.8193c-3.00725,-2.25544 -5.5133,-5.20004 -7.20488,-8.5832c-1.25302,-2.44339 -2.00484,-5.13739 -2.31809,-7.89404c0,-0.75181 -0.1253,-1.50363 -0.06265,-2.31809c0.06265,-3.25786 1.06507,-6.57837 3.0699,-9.14706c0.75181,-0.93977 1.56628,-1.81688 2.50604,-2.50604c1.69158,-1.25302 3.69642,-2.13014 5.82655,-2.38074c0.93977,-0.1253 1.87953,-0.2506 2.8193,-0.1253c1.62893,0.06265 3.19521,0.43856 4.69883,0.93977c1.25302,0.43856 2.50604,1.06507 3.69642,1.69158c1.62893,1.00242 3.19521,2.19279 4.51088,3.63377c0.1253,0.1253 0.18795,0.2506 0.37591,0.2506c1.75423,0 3.44581,0 5.20004,0c-0.50121,-0.62651 -1.00242,-1.19037 -1.50363,-1.81688c-1.56628,-1.62893 -3.38316,-3.0699 -5.45065,-4.07232c-2.00484,-1.06507 -4.32293,-1.69158 -6.57837,-2.00484c-6.26511,-0.81446 -12.84348,1.75423 -16.97845,6.51572c-1.00242,1.06507 -1.81688,2.31809 -2.50604,3.57111c-0.68916,1.25302 -1.25302,2.5687 -1.69158,3.94702c-0.2506,0.93977 -0.50121,1.87953 -0.62651,2.88195c-0.18795,1.44098 -0.31326,2.88195 -0.1253,4.38558c0.06265,1.37832 0.37591,2.694 0.75181,4.00967c0.37591,1.31567 0.93977,2.5687 1.56628,3.82172c0.75181,1.31567 1.62893,2.63135 2.63135,3.75907c1.56628,1.69158 3.38316,3.19521 5.388,4.26028c1.37832,0.81446 2.8193,1.31567 4.32293,1.75423c1.50363,0.37591 3.0699,0.56386 4.63618,0.62651c0.81446,0 1.62893,-0.06265 2.38074,-0.1253c4.00967,-0.43856 7.89404,-2.06749 10.9013,-4.76149c1.50363,-1.19037 2.694,-2.8193 3.69642,-4.44823c-0.37591,0 -0.75181,0 -1.12772,0c-0.50121,1.25302 -1.31567,2.5687 -2.25544,3.57111z" id="svg_3"/>
   <path stroke="null" d="m203.67634,29.2225c-2.44339,6.07716 -4.94944,12.15432 -7.39283,18.23148c-2.8193,6.95427 -5.6386,13.90855 -8.4579,20.86282c0.1253,0 0.18795,0.06265 0.31326,0.06265c4.76149,-11.84106 9.58562,-23.61947 14.34711,-35.46053c0.50121,-1.25302 1.00242,-2.44339 1.50363,-3.69642c-0.1253,0.06265 -0.18795,0.06265 -0.31326,0z" id="svg_4"/>
   <path stroke="null" d="m117.40574,50.52388c0,-2.00484 -0.37591,-4.19763 -1.44098,-5.88921c-0.62651,-0.93977 -1.31567,-1.81688 -2.25544,-2.44339c-1.62893,-1.19037 -3.57111,-1.69158 -5.57595,-1.75423c-0.50121,0 -1.06507,0.06265 -1.56628,0.06265c0.37591,-0.37591 0.87712,-0.68916 1.25302,-1.06507c0.56386,-0.62651 1.00242,-1.37832 1.19037,-2.19279c0.1253,-0.50121 0.18795,-1.06507 0.2506,-1.56628c-0.06265,-0.81446 -0.18795,-1.56628 -0.50121,-2.31809c-1.06507,-2.50604 -3.88437,-4.07232 -6.57837,-3.57111c-1.75423,0.31326 -3.32051,1.37832 -4.26028,2.88195c-0.31326,0.50121 -0.56386,1.06507 -0.81446,1.62893c-0.50121,1.37832 -0.62651,2.694 -0.62651,4.13497c0,9.02176 0,18.04352 0,27.00263c-1.00242,1.00242 -1.94218,2.06749 -3.00725,3.0699c3.0699,0 6.20246,0 9.27237,0c-1.00242,-1.00242 -1.94218,-2.06749 -3.00725,-3.0699c0,-6.95427 0,-13.90855 0,-20.80017c0.56386,-0.50121 1.06507,-1.00242 1.62893,-1.44098c0.87712,-0.68916 1.81688,-1.25302 2.8193,-1.62893c1.44098,-0.50121 3.0699,-0.50121 4.51088,0c1.37832,0.43856 2.44339,1.37832 3.38316,2.44339c1.19037,1.50363 1.87953,3.38316 1.94218,5.26269c0,0.37591 0.06265,0.68916 0.06265,1.00242c0,5.01209 0,10.02418 0,15.03627c-1.00242,1.06507 -2.00484,2.06749 -3.00725,3.13256c3.0699,0 6.20246,0 9.27237,0c-1.00242,-1.00242 -2.00484,-2.06749 -3.00725,-3.0699c0.06265,-4.94944 0.06265,-9.89888 0.06265,-14.84832zm-10.96395,-10.40009c-0.87712,0.56386 -1.75423,0.81446 -2.694,1.19037c-1.00242,0.43856 -1.94218,1.12772 -2.8193,1.81688c-0.37591,0.31326 -0.75181,0.62651 -1.19037,0.93977c0,-0.2506 -0.06265,-0.50121 -0.06265,-0.75181c0,-2.13014 0,-4.26028 0,-6.39041c0,-1.00242 0.18795,-2.00484 0.43856,-3.00725c0.2506,-0.93977 0.75181,-1.81688 1.37832,-2.50604c0.56386,-0.56386 1.37832,-1.00242 2.19279,-1.06507c1.00242,-0.1253 2.06749,0.18795 2.88195,0.81446c0.62651,0.50121 1.19037,1.06507 1.56628,1.75423c0.68916,1.25302 0.93977,2.88195 0.56386,4.26028c-0.31326,1.19037 -1.19037,2.25544 -2.25544,2.9446z" id="svg_5"/>
   <path stroke="null" d="m152.49037,36.42738c1.06507,0.06265 2.06749,-0.68916 2.38074,-1.69158c0.37591,-0.93977 0,-2.06749 -0.75181,-2.694c-0.56386,-0.43856 -1.31567,-0.68916 -2.00484,-0.50121c-1.19037,0.2506 -2.13014,1.37832 -2.00484,2.5687c0,1.25302 1.12772,2.31809 2.38074,2.31809z" id="svg_6"/>
   <path stroke="null" d="m183.44002,64.93364c0,-4.76149 0,-9.46032 0,-14.2218c-0.06265,-1.19037 -0.06265,-2.31809 -0.31326,-3.44581c-0.2506,-1.12772 -0.68916,-2.19279 -1.31567,-3.13256c-0.87712,-1.25302 -2.06749,-2.31809 -3.44581,-2.9446c-1.44098,-0.68916 -3.0699,-1.00242 -4.69883,-0.87712c-1.31567,0.1253 -2.63135,0.43856 -3.82172,1.00242c-1.50363,0.68916 -2.8193,1.75423 -4.00967,2.88195c-0.1253,0.1253 -0.31326,0.31326 -0.50121,0.2506c-0.06265,-1.31567 0.06265,-2.5687 -0.06265,-3.88437c-2.06749,0.62651 -4.13497,1.31567 -6.20246,1.94218c0.93977,0.68916 1.94218,1.31567 2.88195,1.94218c0,6.70367 0,13.40734 0,20.11101c0,0.2506 0,0.50121 0,0.75181c-0.1253,0.18795 -0.2506,0.31326 -0.37591,0.43856c-0.87712,0.87712 -1.69158,1.75423 -2.50604,2.63135c3.0699,0 6.13981,0 9.14706,0c-0.93977,-1.00242 -1.87953,-1.94218 -2.8193,-2.88195c-0.1253,-0.1253 -0.1253,-0.31326 -0.1253,-0.43856c0,-6.51572 0,-13.09408 0,-19.6098c0,-0.18795 0,-0.31326 0.1253,-0.43856c1.50363,-1.56628 3.13256,-2.9446 5.26269,-3.69642c1.19037,-0.31326 2.44339,-0.43856 3.63377,-0.1253c1.50363,0.31326 2.75665,1.25302 3.75907,2.31809c1.50363,1.69158 2.13014,3.82172 2.19279,6.07716c0,5.13739 0,10.33744 0,15.47483c0.06265,0.43856 -0.31326,0.56386 -0.50121,0.87712c-0.81446,0.81446 -1.62893,1.69158 -2.38074,2.50604c3.0699,0 6.13981,0 9.14706,0c-0.93977,-1.00242 -1.87953,-1.94218 -2.8193,-2.88195c-0.31326,-0.18795 -0.2506,-0.43856 -0.2506,-0.62651z" id="svg_7"/>
   <path stroke="null" d="m295.77348,40.24909c-0.37591,0.68916 -0.68916,1.50363 -1.06507,2.19279c-0.37591,-0.75181 -0.68916,-1.50363 -1.00242,-2.19279c0,0.1253 -0.06265,0.2506 -0.06265,0.37591c-0.18795,1.00242 -0.37591,2.00484 -0.62651,3.00725c0.18795,0 0.37591,0 0.62651,0c0.06265,-0.50121 0.18795,-1.06507 0.2506,-1.56628c0.31326,0.50121 0.56386,1.06507 0.81446,1.62893c0.31326,-0.56386 0.50121,-1.12772 0.81446,-1.62893c0.1253,0.50121 0.18795,1.06507 0.31326,1.56628c0.18795,0 0.37591,0 0.56386,0c-0.18795,-1.12772 -0.43856,-2.25544 -0.62651,-3.38316z" id="svg_8"/>
   <path stroke="null" d="m144.09512,65.05894c0,-5.82655 0,-11.59046 0,-17.41701c-0.1253,-1.69158 -0.50121,-3.38316 -1.56628,-4.69883c-0.43856,-0.56386 -0.93977,-0.93977 -1.50363,-1.37832c-1.00242,-0.62651 -2.13014,-1.00242 -3.32051,-1.12772c-1.19037,-0.06265 -2.38074,-0.06265 -3.57111,0.18795c-1.81688,0.31326 -3.57111,1.19037 -5.01209,2.31809c-0.62651,0.56386 -1.25302,1.12772 -1.75423,1.81688c-0.50121,0.68916 -1.06507,1.37832 -1.44098,2.13014c1.00242,0.06265 2.06749,-0.06265 3.0699,0.06265c1.56628,0 3.13256,0.56386 4.51088,1.37832c0.87712,0.43856 1.62893,1.12772 2.38074,1.75423c0.31326,0.2506 0.56386,0.62651 0.87712,0.93977c-0.62651,-0.18795 -1.12772,-0.50121 -1.69158,-0.68916c-0.87712,-0.31326 -1.81688,-0.43856 -2.694,-0.50121c-1.00242,-0.1253 -1.94218,0 -2.9446,0.1253c-1.19037,0.2506 -2.38074,0.56386 -3.44581,1.12772c-1.56628,0.87712 -2.9446,2.25544 -3.69642,3.94702c-0.81446,1.81688 -1.00242,3.88437 -0.68916,5.82655c0.37591,2.00484 1.44098,3.82172 2.9446,5.20004c1.12772,1.00242 2.44339,1.69158 3.82172,2.13014c0.93977,0.31326 1.94218,0.43856 2.9446,0.50121c1.19037,-0.1253 2.44339,-0.18795 3.57111,-0.62651c0.50121,-0.18795 1.06507,-0.37591 1.50363,-0.68916c0.81446,-0.50121 1.62893,-1.12772 2.31809,-1.81688c0.75181,-0.93977 1.37832,-1.87953 1.81688,-3.00725c0.06265,-0.18795 0.1253,-0.37591 0.2506,-0.43856c0.1253,0.18795 0.1253,0.37591 0.1253,0.56386c0,1.94218 0,3.94702 0,5.88921c2.06749,0 4.13497,0 6.20246,0c-0.81446,-0.87712 -1.62893,-1.69158 -2.50604,-2.5687c-0.2506,-0.37591 -0.50121,-0.56386 -0.50121,-0.93977zm-4.19763,-1.75423c-0.81446,1.50363 -2.13014,2.694 -3.75907,3.25786c-1.37832,0.56386 -2.8193,0.50121 -4.26028,0.18795c-1.44098,-0.37591 -2.75665,-1.00242 -3.82172,-2.00484c-3.00725,-2.38074 -4.19763,-6.89162 -2.75665,-10.40009c0.31326,-0.87712 0.87712,-1.56628 1.50363,-2.25544c0.68916,-0.68916 1.56628,-1.19037 2.44339,-1.56628c0.50121,-0.18795 1.06507,-0.31326 1.62893,-0.43856c0.87712,-0.06265 1.75423,-0.06265 2.63135,0c0.81446,0.1253 1.56628,0.37591 2.31809,0.75181c1.06507,0.50121 2.00484,1.31567 2.75665,2.19279c1.19037,1.50363 2.00484,3.44581 2.19279,5.388c0.18795,1.62893 -0.1253,3.44581 -0.87712,4.88679zm1.00242,-6.76632c-0.06265,0.06265 -0.1253,0.06265 -0.18795,0.1253c-0.56386,-1.37832 -1.12772,-2.694 -1.94218,-3.88437c-0.56386,-0.93977 -1.37832,-1.69158 -2.13014,-2.44339c-0.68916,-0.68916 -1.44098,-1.25302 -2.19279,-1.81688c-0.81446,-0.50121 -1.62893,-0.93977 -2.50604,-1.31567c-0.68916,-0.31326 -1.44098,-0.43856 -2.13014,-0.56386c0,-0.31326 0.06265,-0.56386 0.1253,-0.87712c0.37591,-1.19037 1.00242,-2.25544 1.87953,-3.13256c0.93977,-0.87712 2.13014,-1.44098 3.38316,-1.62893c1.19037,-0.06265 2.25544,-0.1253 3.32051,0.43856c0.87712,0.50121 1.50363,1.31567 1.81688,2.25544c0.43856,1.19037 0.43856,2.5687 0.56386,3.75907c0,3.0699 0,6.07716 0,9.08441z" id="svg_9"/>
   <path stroke="null" d="m219.27646,55.72392c-0.56386,-0.56386 -1.25302,-1.00242 -1.87953,-1.44098c-1.00242,-0.68916 -2.19279,-1.12772 -3.32051,-1.69158c-0.81446,-0.31326 -1.69158,-0.68916 -2.50604,-1.06507c-0.81446,-0.31326 -1.56628,-0.81446 -2.38074,-1.19037c-1.69158,-1.00242 -3.19521,-2.00484 -4.19763,-3.69642c-0.43856,-0.75181 -0.50121,-1.62893 -0.37591,-2.44339c0.18795,-0.81446 0.68916,-1.50363 1.37832,-2.00484c1.00242,-0.81446 2.31809,-1.19037 3.50846,-1.37832c0.56386,-0.1253 1.19037,-0.06265 1.81688,-0.06265c1.12772,0 2.19279,0.31326 3.19521,0.75181c0.37591,0.18795 0.62651,0.50121 0.93977,0.75181c1.62893,1.37832 3.19521,2.88195 4.82414,4.26028c-0.06265,-0.43856 -0.1253,-0.81446 -0.2506,-1.25302c-0.31326,-1.31567 -0.62651,-2.694 -0.93977,-4.00967c-0.06265,-0.2506 -0.06265,-0.56386 -0.2506,-0.75181c-1.94218,-0.06265 -3.94702,0 -5.95186,0c-1.37832,0 -2.9446,-0.06265 -4.32293,0.2506c-0.50121,0.1253 -1.00242,0.2506 -1.44098,0.50121c-1.12772,0.56386 -2.06749,1.31567 -2.694,2.38074c-0.68916,1.31567 -0.87712,2.8193 -0.56386,4.26028c0.31326,1.62893 1.31567,3.0699 2.50604,4.19763c0.56386,0.50121 1.19037,1.06507 1.81688,1.50363c0.87712,0.56386 1.69158,1.06507 2.63135,1.50363c0.87712,0.50121 1.81688,0.81446 2.694,1.25302c0.37591,0.18795 0.75181,0.37591 1.12772,0.56386c0.87712,0.37591 1.75423,0.93977 2.5687,1.44098c1.06507,0.62651 2.06749,1.44098 2.88195,2.44339c0.43856,0.56386 0.75181,1.25302 0.87712,1.94218c0.18795,1.06507 -0.1253,2.13014 -0.81446,2.9446c-0.56386,0.81446 -1.37832,1.37832 -2.25544,1.75423c-1.81688,0.87712 -3.94702,1.00242 -5.88921,0.68916c-0.93977,-0.1253 -1.81688,-0.31326 -2.694,-0.62651c-0.2506,-0.06265 -0.50121,-0.18795 -0.68916,-0.37591c-1.25302,-1.06507 -2.44339,-2.19279 -3.69642,-3.25786c-0.62651,-0.56386 -1.25302,-1.12772 -1.94218,-1.69158c0.43856,2.13014 0.93977,4.26028 1.37832,6.32776c3.32051,0 6.57837,0 9.89888,0c1.06507,-0.06265 2.06749,-0.2506 3.0699,-0.68916c0.81446,-0.31326 1.62893,-0.75181 2.31809,-1.31567c1.56628,-1.25302 2.44339,-3.38316 2.13014,-5.388c-0.1253,-2.06749 -1.06507,-4.00967 -2.50604,-5.388z" id="svg_10"/>
   <path stroke="null" d="m247.34417,65.24689c-0.06265,-0.37591 0,-0.75181 0,-1.06507c0,-5.01209 0,-10.02418 0,-15.03627c0,-0.75181 0,-1.44098 -0.06265,-2.19279c-0.1253,-1.50363 -0.68916,-3.00725 -1.69158,-4.19763c-1.00242,-1.19037 -2.38074,-1.87953 -3.88437,-2.19279c-0.87712,-0.2506 -1.69158,-0.18795 -2.5687,-0.18795c-0.87712,0 -1.75423,0.18795 -2.63135,0.37591c-1.31567,0.37591 -2.50604,0.93977 -3.63377,1.75423c-0.75181,0.50121 -1.37832,1.19037 -2.00484,1.81688c-0.68916,0.81446 -1.31567,1.62893 -1.75423,2.50604c1.06507,0.06265 2.13014,-0.06265 3.13256,0.06265c0.87712,0 1.69158,0.18795 2.50604,0.50121c1.69158,0.56386 3.13256,1.56628 4.44823,2.75665c0.2506,0.2506 0.43856,0.56386 0.68916,0.81446c-0.37591,-0.18795 -0.81446,-0.37591 -1.19037,-0.56386c-1.25302,-0.50121 -2.50604,-0.62651 -3.82172,-0.75181c-1.62893,-0.06265 -3.25786,0.2506 -4.76149,0.81446c-1.81688,0.75181 -3.44581,2.13014 -4.38558,3.88437c-0.43856,0.81446 -0.75181,1.75423 -0.93977,2.63135c-0.1253,0.43856 -0.1253,0.87712 -0.1253,1.37832c-0.06265,0.56386 0.06265,1.12772 0.06265,1.69158c0.18795,1.81688 1.00242,3.57111 2.19279,4.94944c1.25302,1.50363 3.0699,2.5687 4.94944,3.13256c0.81446,0.2506 1.75423,0.31326 2.63135,0.43856c1.31567,-0.1253 2.63135,-0.2506 3.88437,-0.75181c1.19037,-0.37591 2.31809,-1.19037 3.19521,-2.06749c0.62651,-0.56386 1.06507,-1.25302 1.50363,-1.94218c0.37591,-0.62651 0.62651,-1.31567 0.93977,-1.94218c0.1253,0.50121 0.06265,1.00242 0.06265,1.50363c0,1.62893 0,3.32051 0,4.94944c2.06749,0 4.13497,0 6.20246,0c-0.75181,-0.81446 -1.56628,-1.62893 -2.31809,-2.44339c-0.18795,-0.1253 -0.50121,-0.31326 -0.62651,-0.62651zm-3.88437,-2.5687c-0.75181,1.75423 -2.25544,3.25786 -4.07232,3.88437c-0.68916,0.2506 -1.44098,0.43856 -2.19279,0.43856c-0.75181,0 -1.56628,-0.06265 -2.31809,-0.2506c-1.06507,-0.31326 -2.06749,-0.75181 -3.00725,-1.37832c-0.93977,-0.75181 -1.87953,-1.62893 -2.50604,-2.63135c-0.93977,-1.50363 -1.50363,-3.32051 -1.44098,-5.07474c-0.06265,-1.75423 0.50121,-3.57111 1.56628,-4.94944c0.68916,-0.93977 1.75423,-1.62893 2.8193,-2.13014c0.68916,-0.2506 1.50363,-0.50121 2.25544,-0.50121c1.12772,-0.06265 2.19279,-0.06265 3.25786,0.31326c1.12772,0.37591 2.31809,1.00242 3.13256,1.87953c0.93977,0.87712 1.62893,1.94218 2.13014,3.13256c0.43856,1.12772 0.81446,2.31809 0.81446,3.50846c0,0.2506 0.06265,0.56386 0.06265,0.81446c0,1.00242 -0.1253,2.00484 -0.50121,2.9446zm0.56386,-5.95186c-0.2506,-0.37591 -0.37591,-0.81446 -0.56386,-1.25302c-0.56386,-1.37832 -1.37832,-2.694 -2.31809,-3.82172c-1.06507,-1.25302 -2.31809,-2.38074 -3.69642,-3.25786c-1.12772,-0.62651 -2.44339,-1.31567 -3.75907,-1.56628c-0.2506,-0.06265 -0.50121,-0.1253 -0.68916,-0.18795c0.31326,-1.25302 0.81446,-2.44339 1.62893,-3.44581c0.50121,-0.68916 1.19037,-1.19037 1.94218,-1.56628c0.56386,-0.2506 1.19037,-0.43856 1.81688,-0.56386c1.12772,-0.1253 2.25544,-0.1253 3.32051,0.37591c0.75181,0.37591 1.31567,1.06507 1.69158,1.87953c0.50121,1.06507 0.62651,2.25544 0.68916,3.44581c0,3.00725 0,6.01451 0,9.08441c0,0.2506 0,0.56386 -0.06265,0.87712z" id="svg_11"/>
   <path stroke="null" d="m281.80228,40.43705c1.00242,1.00242 2.00484,2.13014 3.00725,3.13256c-1.56628,4.32293 -3.0699,8.5832 -4.63618,12.90613c-0.75181,2.13014 -1.56628,4.26028 -2.25544,6.39041c-0.2506,-0.1253 -0.31326,-0.43856 -0.37591,-0.68916c-2.25544,-5.6386 -4.51088,-11.2772 -6.76632,-16.97845c-0.18795,-0.56386 -0.43856,-1.06507 -0.62651,-1.62893c0.62651,-0.56386 1.12772,-1.25302 1.75423,-1.81688c0.43856,-0.43856 0.81446,-0.87712 1.25302,-1.25302c-2.694,0.06265 -5.388,0 -8.01934,0c-0.62651,0 -1.19037,0 -1.81688,0c1.00242,1.00242 2.06749,2.06749 3.00725,3.13256c0.43856,1.06507 0.87712,2.13014 1.31567,3.19521c0.1253,0.37591 0.37591,0.68916 0.18795,1.06507c-1.56628,4.38558 -3.13256,8.77116 -4.69883,13.15674c-0.2506,0.62651 -0.37591,1.25302 -0.68916,1.81688c-0.18795,-0.37591 -0.37591,-0.68916 -0.50121,-1.06507c-2.38074,-5.95186 -4.76149,-11.90371 -7.14223,-17.85557c-0.06265,-0.18795 -0.1253,-0.31326 0,-0.50121c0.93977,-1.00242 1.87953,-2.00484 2.88195,-2.9446c-2.44339,0.06265 -4.88679,0 -7.33018,0c-0.87712,0 -1.69158,0 -2.5687,0c0.87712,0.81446 1.69158,1.75423 2.50604,2.5687c0.2506,0.2506 0.50121,0.43856 0.62651,0.75181c3.32051,8.2073 6.64102,16.47724 9.96153,24.68454c0.56386,0 1.19037,0 1.75423,0c0,-1.44098 0,-2.9446 0,-4.38558c0,-0.37591 0.1253,-0.68916 0.2506,-1.00242c1.75423,-4.82414 3.44581,-9.58562 5.20004,-14.40976c0.06265,-0.1253 0.1253,-0.2506 0.2506,-0.43856c1.00242,2.38074 1.87953,4.76149 2.8193,7.07958c1.69158,4.38558 3.44581,8.77116 5.20004,13.15674c0.62651,0 1.19037,0 1.81688,0c0,-1.31567 0,-2.63135 0,-3.94702c0,-0.37591 0,-0.68916 0.1253,-1.06507c2.31809,-6.39041 4.57353,-12.78083 6.89162,-19.10859c0.1253,-0.37591 0.18795,-0.75181 0.50121,-1.00242c0.93977,-0.93977 1.87953,-1.94218 2.8193,-2.88195c-2.38074,-0.06265 -4.57353,-0.06265 -6.70367,-0.06265z" id="svg_12"/>
   <path stroke="null" d="m154.68316,65.37219c0,-8.3326 0,-16.60255 0,-24.93515c-2.06749,0.62651 -4.19763,1.31567 -6.26511,2.00484c1.00242,0.62651 1.94218,1.31567 2.9446,1.94218c0,7.01693 0,13.9712 0,20.98813c-1.00242,1.00242 -1.94218,2.06749 -2.9446,3.0699c3.0699,0 6.20246,0 9.27237,0c-1.12772,-1.00242 -2.00484,-2.06749 -3.00725,-3.0699z" id="svg_13"/>
   <path stroke="null" d="m290.8867,40.4997c0,0.18795 0,0.37591 0,0.56386c0.2506,0 0.43856,0 0.68916,0c0,0.87712 0,1.69158 0,2.5687c0.18795,0 0.37591,0 0.56386,0c0,-0.87712 0,-1.69158 0,-2.5687c0.2506,0 0.43856,0 0.68916,0c0,-0.18795 0,-0.37591 0,-0.56386c-0.68916,0 -1.31567,0 -1.94218,0z" id="svg_14"/>
  </g>
 </g>

</svg>