<svg style="fill: white" width="275" height="75" xmlns="http://www.w3.org/2000/svg" version="1.1" xml:space="preserve">
 <g>
  <title>Layer 1</title>
  <g id="svg_1">
   <path d="m56.2,43c0,2.2 -0.1,4.4 -0.1,6.7c0,0.5 -0.2,0.9 -0.5,1.2c-0.8,0.8 -1.6,1.5 -2.4,2.3c-0.3,0.3 -0.6,0.5 -1,0.4c-0.9,-0.2 -1.4,0.3 -1.8,1c-0.1,0.2 -0.3,0.4 -0.4,0.6c-0.4,0.5 -0.9,0.9 -1.4,1.3c-0.7,0.2 -1.3,0 -2,0c-0.3,0 -0.6,0 -0.9,0c-0.1,0 -0.2,-0.1 -0.2,-0.2s0,-0.2 0,-0.2c-0.1,-0.3 0.2,-0.7 -0.2,-0.9c-0.2,-0.1 -0.5,-0.1 -0.8,-0.1c-0.1,0 -0.2,0 -0.2,0c-0.1,-0.1 -0.2,-0.1 -0.2,-0.3c0,-0.3 0,-0.6 0,-0.9c0,-0.1 -0.1,-0.2 -0.1,-0.2c-0.1,0 -0.2,0 -0.2,0.1c-0.3,0.3 -0.6,0.5 -0.8,0.8c-0.2,0.2 -0.3,0.3 -0.4,0.4c-0.2,0.2 -0.4,0.3 -0.8,0.3c-0.2,0 -0.3,0 -0.5,0c-0.2,0 -0.4,-0.2 -0.4,-0.4c-0.1,-0.7 0.1,-1.9 0.3,-2.7c0.1,-0.2 0.2,-0.4 0.3,-0.5c0.8,-0.8 1.5,-1.5 2.3,-2.2c0.3,-0.2 0.4,-0.5 0.4,-0.9c0,-3.6 0.1,-7.2 0.1,-10.8c0,-0.1 0,-0.2 0,-0.4c0,-0.2 -0.1,-0.2 -0.2,-0.3c-0.1,0 -0.1,0 -0.1,0c-0.3,-0.1 -0.7,0.1 -1,-0.2c0,-0.4 0,-0.7 0,-1.1c0,-1.6 0,-1.6 1.1,-2.7c0.1,-0.1 0.2,-0.2 0.3,-0.3c0.2,-0.2 0.3,-0.2 0.5,-0.2c0.6,0 1.1,0 1.7,0c1.1,0 0.8,0.1 1.6,-0.6c0.1,-0.1 0.1,-0.1 0.2,-0.2c0.5,-0.6 1.1,-1 1.9,-0.9c0.2,0.1 0.3,-0.1 0.4,-0.4c0,-0.2 0,-0.4 0,-0.6c0,-0.3 0.1,-0.5 0.3,-0.7c0.2,-0.2 0.4,-0.4 0.7,-0.7c0.7,-0.6 0.7,-0.6 1.5,-0.6c0.4,0 0.4,0.1 0.4,0.6c0,0.2 0,0.4 0,0.6s0.1,0.3 0.3,0.3c0.3,0 0.6,0 0.9,0.1c0.2,0 0.3,0.1 0.3,0.3c0,0.3 0,0.7 0,1c0,0.1 0.1,0.1 0.1,0.1c0.1,0 0.1,0 0.1,-0.1c0.4,-0.4 0.8,-0.8 1.2,-1.1c0.1,-0.1 0.2,-0.2 0.3,-0.2c0.4,0 0.9,0 1.4,0c0.1,0 0.2,0.2 0.2,0.3c0,0.6 0,1.1 0,1.7c0,0.2 0,0.3 0,0.5c0,0.1 0.1,0.1 0.2,0.1c0.4,-0.4 0.9,-0.9 1.3,-1.3c0.2,-0.2 0.5,-0.4 0.7,-0.7c0.5,-0.6 1.1,-1 1.9,-0.9c0.2,0.1 0.3,-0.1 0.3,-0.3c0,-0.2 0.1,-0.4 0.1,-0.6c0,-2.4 0.1,-4.9 0.1,-7.3c0,-0.2 0,-0.3 0,-0.5c0,-0.1 -0.1,-0.2 -0.2,-0.2c-0.2,0 -0.5,0 -0.7,-0.1c-0.3,0 -0.4,-0.2 -0.4,-0.5c0,-0.4 0,-0.9 0,-1.4c0,-0.2 0,-0.4 0,-0.6c0,-0.1 -0.1,-0.1 -0.1,-0.2c0,0 -0.1,0 -0.1,0.1c-0.1,0 -0.1,0.1 -0.1,0.1c-0.4,0.4 -0.7,0.8 -1.1,1.1c0,0.5 -0.1,1 -0.1,1.6c0,0.4 0.1,0.9 -0.1,1.4c-0.2,0.4 -0.6,0.6 -0.9,1c-0.3,0.3 -0.6,0.4 -1,0.4c-0.2,0 -0.5,0 -0.7,0c-0.2,0 -0.2,-0.1 -0.2,-0.2s0,-0.3 0,-0.4c0,-2.6 0.1,-5.1 0.1,-7.7c0,-0.4 0.1,-0.7 0.3,-0.9c0.3,-0.3 0.6,-0.6 0.9,-0.9c0.2,-0.2 0.3,-0.4 0.3,-0.7c-0.2,-0.8 0.2,-1.4 0.8,-1.9c-0.3,-0.4 -0.1,-0.5 0,-0.7c0.2,-0.2 0.4,-0.3 0.8,-0.3c0.4,0 0.9,0.1 1.4,0c1.2,-0.4 2.5,-0.1 3.7,-0.1c0.3,0 0.5,0.2 0.5,0.6c0,0.7 0,1.4 0,2.1c0,0.2 0.1,0.3 0.3,0.3c0.3,0 0.6,0 0.9,0c0.2,0 0.4,-0.2 0.3,-0.4c-0.2,-1 0.3,-1.6 1,-2.2c0.3,-0.3 0.6,-0.5 1.1,-0.4c0.2,0 0.3,0 0.5,0c0.3,0 0.4,0.1 0.4,0.4c0,0.8 0,1.6 0,2.5c0,0.4 0,0.7 0,1.1c0,0.1 0.1,0.1 0.1,0.1c0.1,0 0.2,0 0.2,0c1,-0.9 1.9,-1.9 2.9,-2.9c0.3,-0.3 0.6,-0.5 0.8,-0.8c0.4,-0.5 1,-0.7 1.6,-0.6c0.4,0.1 0.9,0 1.4,0c0.4,0 0.4,0.1 0.5,0.6c0,0.7 0,1.4 0,2.1c0,0.2 0.1,0.3 0.3,0.3c0.3,0 0.6,0 0.9,0.1c0.2,0 0.3,0.1 0.3,0.3c0,0.3 0,0.7 0,1c0,0.1 0.1,0.2 0.2,0.1c0.3,-0.3 0.6,-0.5 0.8,-0.8c0.2,-0.2 0.4,-0.4 0.7,-0.5c0.4,-0.2 0.9,-0.1 1.3,-0.1c0.3,0.3 0.1,0.6 0.2,0.9c0,0.6 0,1.2 -0.1,1.9c-0.4,0.4 -0.8,0.9 -1.3,1.4c-0.6,0.5 -1.1,1.1 -1.7,1.6c-0.2,0.2 -0.2,0.3 -0.2,0.5c0,0.3 0,0.5 0,0.7c0,0.9 0,1.8 0,2.7c-0.1,7.8 -0.2,15.5 -0.3,23.3c0,0.4 0,0.7 0,1.1c0,0.2 0.1,0.3 0.3,0.3s0.5,0 0.8,0c0.4,0 0.4,-0.1 0.5,-0.5c0,-0.2 0,-0.4 0,-0.6c0,-0.3 0.1,-0.5 0.3,-0.8c0.7,-0.6 1.4,-1.3 2,-2c0.7,-0.8 0.7,-0.5 0.7,-1.5c0,-0.1 0,-0.2 0,-0.2c-0.1,-0.3 0.1,-0.5 0.3,-0.8c0.3,-0.3 0.7,-0.7 1.1,-1c0.1,-0.1 0,-0.2 -0.1,-0.2c-0.1,-0.1 -0.2,-0.1 -0.4,-0.1c-1,0 -0.9,0.1 -0.9,-1c0,-0.4 0,-0.9 0,-1.4c0,-0.7 0,-0.7 -0.7,-0.7c-0.2,0 -0.3,0 -0.5,0c-0.2,0 -0.2,-0.1 -0.2,-0.2c0,-0.1 0,-0.2 0,-0.4c0,-1.5 0,-3.1 0.1,-4.5c0,-0.6 0.2,-1 0.6,-1.4c0.2,-0.2 0.4,-0.4 0.6,-0.6c0.3,-0.3 0.7,-0.4 1.2,-0.4c0.5,0 1.1,0 1.7,0c0.4,0 0.5,0.2 0.6,0.6c0,0.2 0,0.4 0,0.6c0,0.1 0.1,0.2 0.2,0.2c0.3,0 0.6,0.1 0.9,0c0.2,0 0.3,-0.1 0.4,-0.2c0.4,-0.3 0.7,-0.6 1.1,-1c0.2,-0.2 0.4,-0.3 0.7,-0.3c0.8,0 1.6,0 2.4,0c0.2,0 0.3,0.1 0.3,0.3c0,0.3 0,0.6 0,0.9c0,0.2 0.1,0.3 0.3,0.3c0.2,0 0.5,0 0.8,0c0.5,0 1,0 1.5,0c0.3,0 0.4,0.1 0.4,0.4c0,0.2 0,0.4 0,0.6c0,0.1 0.1,0.1 0.2,0.1c0.4,-0.4 0.8,-0.7 1.2,-1.1c0.2,-0.2 0.2,-0.4 0.2,-0.6c-0.1,-0.8 0.2,-1.4 0.8,-1.8c0.2,-0.2 0.3,-0.4 0.6,-0.5c0.3,-0.3 0.4,-0.6 0.4,-1c0,-2.1 0,-4.1 0.1,-6.2c0,-0.5 0.1,-0.8 0.5,-1.2c0.7,-0.6 1.4,-1.3 2.2,-2.1c0.3,-0.3 0.4,-0.5 0.4,-0.9c-0.1,-0.7 0.1,-1.3 0.7,-1.7c0.1,-0.1 0.3,-0.2 0.3,-0.3c0.3,-0.4 0.8,-0.5 1.3,-0.5c0.6,0.1 0.6,0 0.6,0.7c0,1.1 0,2.3 0,3.4c0,0.3 -0.1,0.5 -0.3,0.7c-0.4,0.4 -0.8,0.8 -1.2,1.2c0,0.7 -0.1,1.3 -0.1,2c0,1.7 0,3.4 -0.1,5.2c0,0.3 0.1,0.4 0.4,0.4c0.2,0 0.4,0 0.6,0c0.3,0 0.5,-0.1 0.8,-0.3c0.3,-0.3 0.6,-0.6 0.9,-0.9c0.2,-0.2 0.4,-0.4 0.7,-0.4c0.3,-0.1 0.7,-0.1 1,0s0.1,0.5 0.2,0.8c0,0.2 0,0.4 0,0.6c0,0.5 -0.1,1 0.1,1.4c0.3,-0.3 0.7,-0.6 1,-0.9c0.3,-0.3 0.4,-0.6 0.4,-1c0,-1.9 0,-3.7 0.1,-5.5c0,-0.3 0,-0.5 0,-0.9c0,-0.3 0.1,-0.5 0.3,-0.8c0.8,-0.8 1.7,-1.6 2.5,-2.4c0.3,-0.3 0.5,-0.5 0.4,-1c0,-0.2 0,-0.3 0,-0.5c-0.1,-0.3 0.1,-0.5 0.3,-0.8c0.3,-0.3 0.6,-0.5 0.8,-0.8c0.3,-0.4 0.7,-0.5 1.2,-0.5c0.4,0.1 0.6,0.2 0.6,0.6c0,1.1 0,2.2 0,3.3c0,0.3 -0.1,0.5 -0.3,0.8c-0.1,0.2 -0.2,0.3 -0.3,0.4c-0.3,0.3 -0.7,0.5 -0.8,0.9c-0.2,0.4 -0.1,0.9 -0.1,1.3c0,1.8 0,3.6 -0.1,5.4c0,0.8 0,0.8 0.8,0.8c0.1,0 0.1,0 0.1,0c0.3,0.1 0.5,-0.1 0.8,-0.3c0.3,-0.3 0.6,-0.5 0.8,-0.8c0.3,-0.3 0.6,-0.4 1,-0.4c1.1,0 1,-0.1 1,1c0,0.9 0,1.9 0,2.8c0,0.3 -0.1,0.5 -0.3,0.8c-0.2,0.1 -0.3,0.3 -0.4,0.4c-0.8,0.5 -0.9,1.3 -0.7,2.2c0,0.1 0.1,0.1 0.1,0.1c0,0 0.1,0 0.1,0c0.2,-0.1 0.3,-0.3 0.4,-0.4c0.2,-0.2 0.3,-0.4 0.4,-0.6c0.2,-0.2 0.4,-0.4 0.8,-0.4c0.8,0 1.5,0 2.2,0c0.2,0 0.4,-0.1 0.5,-0.2c0.3,-0.3 0.6,-0.6 0.9,-0.9c0.4,-0.4 0.9,-0.6 1.5,-0.6c0.1,0 0.2,0 0.4,0c0.2,0 0.3,-0.1 0.3,-0.3c0,-0.1 0.1,-0.2 0,-0.2c-0.2,-1.2 0.7,-1.6 1.3,-2.3c0.1,-0.1 0.2,-0.1 0.2,-0.1c0.4,0 0.8,0 1.2,0c0.1,0 0.1,0.1 0.2,0.2c0.1,0.4 -0.2,0.9 0.2,1.1c0.3,0.3 0.7,0.1 1.1,0.1c0.2,0 0.2,0.1 0.2,0.2c0,0.6 0,1.3 0,1.9c0,0.2 0,0.4 0,0.6c0,0.1 0.1,0.2 0.2,0.2c0.2,0 0.4,0 0.6,0.1c0.3,0.1 0.6,-0.1 0.9,-0.3c0.6,-0.6 1.3,-1.2 1.9,-1.9c0.2,-0.2 0.3,-0.4 0.6,-0.5c0.3,-0.3 0.7,-0.4 1.1,-0.4c0.6,0 1.3,0 1.9,0c0.3,0 0.5,0 0.7,-0.3c0.3,-0.4 0.7,-0.7 1.1,-1c0.1,-0.1 0.3,-0.2 0.4,-0.2c0.3,0 0.7,0 1,0c0.2,0 0.3,0.1 0.3,0.3c0,0.7 0,1.3 0,2c0,0.2 0,0.3 0,0.5c0,0.1 0.1,0.2 0.2,0.2c0.3,0 0.7,0 1,0.1c0.2,0 0.3,0.1 0.3,0.3c0,0.3 0,0.7 0,1c0,0.1 0.1,0.1 0.1,0.1c0,0 0.1,0 0.1,-0.1c0.3,-0.3 0.5,-0.6 0.8,-0.9c0.3,-0.3 0.6,-0.5 1,-0.4c0.7,0.1 1.1,-0.2 1.6,-0.6c0.6,-0.7 1.3,-1.4 2,-2c0.5,-0.5 1,-0.6 1.7,-0.5c0.2,0 0.4,0.3 0.4,0.4c0,0.7 0,1.4 0,2.1c0,0.3 0.1,0.4 0.3,0.4c0.2,0 0.3,0 0.5,0c0.5,0.1 0.6,0.2 0.6,0.6c0,0.2 0,0.4 0,0.6c0,0.1 0.1,0.1 0.1,0.2c0,0 0.1,-0.1 0.1,-0.1c0.4,-0.4 0.8,-0.7 1.1,-1.2c0.4,-0.5 0.9,-1 1.4,-1.5c0.1,-0.1 0.3,-0.2 0.4,-0.2c0.6,0 1.3,0 1.9,0c0.3,0 0.6,-0.1 0.8,0.1c0.1,0.2 0,0.5 0,0.7c0,0.1 0.1,0.2 0.1,0.3c0.1,-0.1 0.2,-0.1 0.2,-0.1c0.3,-0.3 0.6,-0.5 0.8,-0.8c0.5,-0.5 1.1,-0.5 1.7,-0.4c0.2,0.1 0.3,0.2 0.3,0.3c0,0.7 0,1.5 0,2.2c0,0.3 -0.2,0.6 -0.4,0.9s-0.5,0.5 -0.8,0.8c-0.2,0.2 -0.3,0.4 -0.3,0.7c0,0.1 0,0.2 0,0.2c-0.1,4.6 -0.1,9.2 -0.2,13.8c0,0.2 0,0.3 0,0.5c0,0.1 0.1,0.2 0.2,0.2c0.1,0 0.1,0 0.1,0c0.3,0 0.7,0.1 1,0.1c0.3,0.3 0.1,0.7 0.1,1c0,0.7 0.1,1.3 -0.1,2c-0.4,0.4 -0.9,0.9 -1.3,1.3c-0.9,0.9 -1.8,1.8 -2.7,2.7c-0.3,0.4 -0.7,0.5 -1.2,0.5c-0.1,0 -0.3,0 -0.4,0c-0.2,0 -0.3,-0.1 -0.3,-0.3c0,-0.5 0,-1 0,-1.5c0,-0.3 0,-0.6 0,-0.9c0,-0.2 -0.2,-0.3 -0.3,-0.3c-0.3,0 -0.5,0 -0.9,-0.1c-0.3,0 -0.4,-0.2 -0.5,-0.4c-0.1,-0.2 -0.1,-0.4 0,-0.6c0,-0.1 -0.1,-0.1 -0.2,-0.1c-0.3,0.3 -0.6,0.6 -0.9,0.9s-0.4,0.6 -0.4,1c0,0.2 0,0.3 0,0.5c0,0.3 -0.1,0.5 -0.3,0.7c-0.2,0.2 -0.4,0.4 -0.6,0.6c-0.3,0.4 -0.7,0.5 -1.2,0.5c-0.4,-0.1 -0.9,-0.1 -1.3,0.1c-0.2,0.1 -0.5,0 -0.8,0c-0.1,0 -0.2,-0.1 -0.2,-0.2c0,-0.8 0,-1.6 0,-2.4c0,-0.1 -0.1,-0.2 -0.1,-0.2c-0.1,-0.1 -0.2,0 -0.2,0.1c-0.2,0.2 -0.5,0.4 -0.7,0.6c-0.4,0.5 -1,0.6 -1.6,0.6c-0.2,-0.1 -0.3,-0.2 -0.3,-0.3c0,-0.9 0,-1.7 0,-2.6c0,-0.2 0.1,-0.4 0.2,-0.5c0.1,-0.1 0.2,-0.2 0.3,-0.3c0.3,-0.4 0.7,-0.7 1,-1.1c0,-0.4 0,-0.9 0,-1.4c0,-1.1 0,-2.3 0,-3.4c0,-0.4 0.1,-0.9 -0.1,-1.3c-0.1,-0.2 0,-0.5 0,-0.9c0,-1.8 0,-3.6 0.1,-5.4c0,-0.2 0,-0.5 0,-0.7c0,-0.1 -0.1,-0.2 -0.2,-0.2c-0.2,0 -0.4,0 -0.6,-0.1c-0.3,-0.1 -0.7,0 -0.9,0.3c-0.1,0.2 -0.3,0.3 -0.4,0.4c-0.4,0.4 -0.8,0.8 -1.4,0.7c-0.6,0.3 -1.3,0.2 -1.9,0.2c-0.5,0 -1,0 -1.5,0c-0.3,0 -0.4,0.1 -0.4,0.4c0,1.9 0,3.7 -0.1,5.6c0,1.4 0,2.8 -0.1,4.2c0,0.3 0.1,0.4 0.4,0.4c0.3,0 0.5,0 0.8,0c0.2,0 0.3,0.1 0.3,0.3s0,0.5 0,0.7c0,0.1 0.1,0.1 0.2,0.1c0.3,-0.2 0.6,-0.5 0.8,-0.8c0.2,-0.2 0.5,-0.4 0.8,-0.5c0.3,-0.1 0.7,-0.1 1,0c0.3,0.1 0.2,0.5 0.2,0.8c0,0.6 0,1.3 0,1.9c0,0.2 -0.1,0.4 -0.2,0.5c-0.7,0.7 -1.3,1.4 -1.9,2.1c-0.6,0.6 -1.3,1.2 -1.9,1.9c-0.3,0.3 -0.6,0.4 -0.9,0.3c-0.4,0 -0.8,0 -1.2,0c-0.3,0 -0.7,0 -0.9,0.2c-0.2,0.1 -0.3,-0.1 -0.3,-0.2c0,-0.4 0,-0.7 0,-1.1c0,-0.2 -0.1,-0.3 -0.3,-0.3c-0.3,0 -0.6,-0.1 -0.8,0c-0.2,0.1 -0.4,0.2 -0.6,0.2c-1.4,0 -1.4,0.1 -1.4,-1.4c0,-0.9 0,-1.9 0,-2.8c0,-0.1 -0.2,-0.1 -0.2,-0.1c-0.2,0.1 -0.3,0.3 -0.4,0.4c-1.7,1.6 -3.4,3.3 -5,4.9c-0.3,0.3 -0.7,0.4 -1.1,0.4c-0.7,-0.1 -1.4,0 -2.1,0c-0.2,0 -0.3,-0.1 -0.3,-0.3c0,-0.3 0,-0.6 0,-0.9c0,-0.2 -0.1,-0.3 -0.3,-0.3c-0.5,0 -1,-0.1 -1.6,0.1c-0.2,0.1 -0.5,0 -0.7,0c-0.2,0 -0.3,-0.2 -0.3,-0.3c-0.1,-0.2 0,-0.5 0,-0.7c0,-0.2 0.1,-0.4 -0.2,-0.5c-0.1,-0.1 -0.3,0.1 -0.4,0.1c-0.2,0.1 -0.4,0.1 -0.6,0c-0.1,0 -0.2,-0.1 -0.2,-0.2c0,-0.1 0,-0.1 0,-0.1c-0.1,-0.3 0.1,-0.7 -0.2,-1c-0.2,0.2 -0.5,0.4 -0.7,0.6c-1.1,1.1 -2.3,2.2 -3.3,3.3c-0.3,0.3 -0.6,0.4 -1,0.4c-0.3,-0.1 -0.7,0.2 -0.9,-0.2c-0.1,-0.2 0,-0.5 0,-0.8c0,-0.1 0,-0.2 -0.1,-0.2c-0.1,-0.1 -0.1,-0.2 -0.2,-0.2c-0.6,0 -1.2,0 -1.9,0c-0.2,0 -0.3,0 -0.5,0c-0.2,0 -0.3,-0.1 -0.3,-0.4c0,-1.2 0,-2.4 0,-3.6c0,-0.2 0.1,-0.4 0.2,-0.5c0.1,-0.1 0.1,-0.1 0.2,-0.2c0.3,-0.4 0.8,-0.6 1,-1.1c0.3,-0.4 0.1,-1 0.1,-1.6c0,-3.6 0.1,-7.2 0.1,-10.8c0,-0.3 0,-0.6 0,-0.9c0,-0.1 -0.1,-0.2 -0.2,-0.1c-0.3,0.3 -0.6,0.5 -0.9,0.9c-0.2,0.2 -0.4,0.3 -0.8,0.3c-0.1,0 -0.2,0 -0.2,0c-0.9,0 -0.8,0 -0.9,-0.9c0,-0.4 0,-0.7 0,-1.1c0,-0.2 0.1,-0.5 -0.2,-0.7c-0.2,0.1 -0.3,0.3 -0.5,0.4c-0.3,0.2 -0.5,0.6 -0.8,0.7s-0.7,0 -1.1,0c-0.1,0 -0.2,0 -0.2,0.1c-0.1,0.1 -0.2,0.1 -0.2,0.3c0,0.2 0,0.4 0,0.6c0,3.9 -0.1,7.9 -0.1,11.9c0,0.2 0,0.4 0,0.6c0,0.1 0.1,0.2 0.2,0.2c0.6,0 1.2,0 1.9,0.1c0.2,0 0.4,0 0.6,0c0.1,0 0.2,0.1 0.2,0.2c0,0.1 0,0.1 0,0.1c0,0.9 0,1.7 -0.1,2.6c-0.5,0.6 -1.2,1.2 -1.7,1.7c-0.8,0.8 -1.7,1.6 -2.4,2.4c-0.3,0.3 -0.6,0.4 -1,0.4c-0.2,-0.1 -0.5,0 -0.8,0c-0.2,0 -0.2,-0.1 -0.3,-0.2c0,-0.1 0,-0.2 0,-0.2c0.1,-1.1 0,-1 -1,-1.1c-0.6,0 -1.2,-0.1 -1.9,-0.1c-0.3,-0.7 -0.1,-1.3 -0.1,-1.9c0,-0.7 0,-1.3 0,-2c0,-0.3 0.1,-0.5 0.3,-0.7c0.3,-0.3 0.6,-0.5 0.8,-0.8c0.3,-0.4 0.5,-0.8 0.5,-1.4c0,-1.4 0,-2.8 0.1,-4.2c0,-2.4 0.1,-4.9 0.1,-7.3c0,-0.3 0,-0.6 0,-0.9c0,-0.1 -0.1,-0.1 -0.2,-0.1c-0.2,0.2 -0.5,0.4 -0.7,0.6c-0.3,0.3 -0.7,0.4 -1.1,0.4c-0.7,0 -0.9,-0.1 -0.9,-0.9c0,-0.5 0,-1 0,-1.6c0,-0.1 -0.2,-0.1 -0.2,-0.1c-0.4,0.4 -0.8,0.8 -1.2,1.2c-0.1,0.1 -0.1,0.2 -0.1,0.3c0,0.2 0,0.3 0,0.5c0,3.9 -0.1,7.7 -0.1,11.6c0,0.3 0,0.6 0,0.9c0,0.1 0.1,0.2 0.2,0.2c0.1,0 0.1,0 0.1,0c0.3,0 0.7,0.1 1,0.1c0.2,0.3 0.1,0.7 0.1,1c0,0.6 0,1.2 0,1.9c-0.3,0.5 -0.9,1 -1.3,1.4c-0.9,0.9 -1.8,1.7 -2.7,2.6c-0.5,0.5 -1.1,0.6 -1.8,0.5c-0.2,-0.1 -0.3,-0.2 -0.3,-0.3c-0.1,-0.2 -0.1,-0.3 0,-0.5c0,-0.6 0.1,-1.1 0,-1.7c0,-0.5 0.1,-1 0.2,-1.5c0,-0.1 -0.1,-0.2 -0.1,-0.2c0,0 -0.1,0 -0.1,0.1c-0.2,0.2 -0.5,0.4 -0.7,0.6c-1.1,1.1 -2.2,2.1 -3.3,3.2c-0.3,0.3 -0.7,0.4 -1.1,0.4c-0.3,-0.1 -0.7,0 -1,0c-0.2,0 -0.4,0.1 -0.6,0.1c-0.8,0.2 -0.8,0.2 -0.8,-0.7c0,-0.1 0,-0.1 0,-0.1c0,-0.9 -0.1,-0.9 -1,-0.7c-0.1,0 -0.1,0.1 -0.1,0.1c-0.2,0.1 -0.3,-0.1 -0.3,-0.3c0,-1.1 0,-2.3 0,-3.4c0,-0.2 0,-0.5 0,-0.7c0,-0.1 -0.1,-0.1 -0.1,-0.1c-0.1,0 -0.1,0 -0.1,0.1c-0.4,0.4 -0.8,0.8 -1.2,1.1c-0.1,0.1 -0.2,0.3 -0.4,0.2c-0.5,-0.1 -0.9,0.2 -1.4,0.2c-0.5,0 -1,-0.1 -1.6,0c-0.2,0.4 -0.6,0.8 -1,1.1c-0.6,0.5 -1.1,1.1 -1.7,1.6c-0.2,0.2 -0.3,0.4 -0.3,0.7c0,0.2 0,0.3 0,0.5c0.1,0.4 -0.1,0.7 -0.3,0.9c-0.3,0.3 -0.6,0.6 -1,1c-0.3,0.3 -0.7,0.3 -1.2,0.3c-0.4,0 -0.5,0.1 -0.5,0.5c0,1.1 0,2.2 0,3.3c0,0.4 0,0.9 -0.2,1.3c-0.1,0.2 -0.1,0.5 -0.1,0.9c0,1.9 0,3.7 -0.1,5.5c0,0.5 -0.1,0.9 -0.5,1.1c-0.1,0.1 -0.2,0.2 -0.3,0.3c-0.5,0.8 -1.3,0.6 -2,0.6c-0.1,0 -0.2,-0.1 -0.2,-0.2c-0.1,-0.3 0,-0.7 0,-1c0,-0.2 -0.1,-0.3 -0.3,-0.3s-0.5,0 -0.8,0c-0.3,0 -0.4,-0.1 -0.4,-0.4c0,-0.2 0,-0.5 0,-0.8c0,-0.1 -0.1,-0.1 -0.1,-0.2c0,0 -0.1,0.1 -0.1,0.1c-0.2,0.2 -0.5,0.4 -0.6,0.6c-0.4,0.8 -1.2,1.2 -1.8,1.9c-0.3,0.4 -0.8,0.5 -1.3,0.5c-0.7,-0.1 -0.8,-0.1 -0.8,-0.8c0,-0.6 0,-1.1 0,-1.7c0,-0.2 0,-0.5 0.1,-0.7c0.1,-0.1 0.1,-0.3 0.1,-0.5c-0.2,-0.8 0.2,-1.4 0.8,-1.8c0.2,-0.2 0.4,-0.3 0.5,-0.5c0.1,-0.1 0.2,-0.3 0.2,-0.4c0.1,-0.2 0,-0.3 0,-0.5c0,-3.4 0.1,-6.7 0.1,-10.1c0,-0.3 0,-0.6 0,-0.9c0,-0.1 -0.1,-0.1 -0.1,-0.2c-0.1,0.1 -0.1,0.1 -0.1,0.1c-0.3,0.6 -0.9,1 -1.3,1.5c-0.2,0.2 -0.4,0.4 -0.7,0.7c-0.8,0.8 -0.9,0.7 -0.8,1.7c0,0.1 0,0.1 0,0.1c-0.1,0.8 -1.3,2 -2.1,2c-0.8,0 -1.1,0 -1,-0.9c0,-0.4 0,-0.8 0.2,-1.2c0.1,-0.2 0.1,-0.5 0.1,-0.7c0,-0.9 0,-1.9 0,-2.8c0,-0.4 0.1,-0.7 0.4,-1c0.1,-0.1 0.2,-0.2 0.4,-0.3c0.6,-0.4 0.8,-1 0.7,-1.7c-0.1,-0.4 0.1,-0.6 0.4,-0.9c1.2,-1.2 2.4,-2.4 3.6,-3.5c0.4,-0.4 0.6,-0.8 0.5,-1.3c-0.1,-0.3 0,-0.7 0,-1c0,-0.3 0,-0.7 0.2,-1c0.1,-0.1 0.1,-0.3 0.1,-0.5c0,-1.4 0,-2.7 0,-4c0,-0.1 -0.1,-0.2 -0.1,-0.2c-0.1,0.1 -0.2,0.1 -0.2,0.1c-0.2,0.2 -0.5,0.4 -0.7,0.7c-0.4,0.4 -0.9,0.6 -1.4,0.6c-0.1,0 -0.2,0 -0.2,0c-0.6,0 -1.2,-0.1 -1.9,-0.1c-0.3,-0.7 -0.1,-1.3 -0.1,-1.9c0,-0.9 0,-1.7 0,-2.6c0,-0.4 0,-0.7 0.2,-1.1c0,-0.1 -0.1,-0.2 -0.1,-0.2c-0.1,0 -0.1,0 -0.1,0.1c-0.1,0.1 -0.1,0.1 -0.2,0.2c-0.4,0.4 -0.9,0.9 -1.3,1.3c0,0.6 -0.1,1.1 -0.1,1.7c-1,3.3 -1,5.2 -1.1,7.2l0,0zm57.5,-1.6c0,0.4 0,0.7 0,1.1c0,1.7 0,3.6 -0.1,5.3c0,0.4 0,0.5 0.5,0.6c0.6,0 1.1,0 1.7,0c0.6,0 0.8,0.1 0.8,0.7s0,1.2 0,1.9c0,0.1 0.1,0.2 0.1,0.3c0.1,-0.1 0.2,-0.1 0.2,-0.1c0.7,-0.7 1.4,-1.5 2.2,-2.2c0.4,-0.3 0.5,-0.7 0.5,-1.2c0,-3.6 0.1,-7.2 0.1,-10.7c0,-0.2 0,-0.3 0,-0.5c0,-0.2 -0.2,-0.3 -0.3,-0.3c-0.8,0 -1.5,0 -2.2,0c-0.3,0 -0.4,-0.1 -0.4,-0.4c0,-0.1 0,-0.2 0,-0.4c0,-0.6 0,-1.1 0,-1.7c0,-0.1 -0.1,-0.1 -0.2,-0.1c-0.3,0.2 -0.6,0.5 -0.8,0.8c-0.2,0.3 -0.5,0.4 -0.9,0.4c-0.3,0 -0.6,0 -0.9,0c-0.1,0 -0.2,0.1 -0.2,0.2c0,0.2 -0.1,0.5 -0.1,0.7c0.1,1.9 0,3.8 0,5.6zm18.1,1.9c0,-1.5 0,-3.1 0.1,-4.5c0,-0.2 0,-0.3 0,-0.5c0,-0.1 -0.1,-0.1 -0.1,-0.1c-0.1,0 -0.2,-0.1 -0.2,0c-1.8,1.7 -3.6,3.5 -5.4,5.2c-0.6,0.6 -1.2,1.2 -1.8,1.8c-0.2,0.9 -0.1,1.9 -0.1,2.8c0,0.4 0.1,0.5 0.5,0.6c0.6,0.1 1.1,-0.2 1.5,-0.6c0.3,-0.3 0.7,-0.6 1.1,-1c0.5,0 1,0 1.6,0c0.3,0 0.6,0 0.9,0c0.3,0 0.4,0.1 0.4,0.4c0,0.4 0,0.8 0,1.2c0,0.3 0,0.7 0,1c0,0.1 0.1,0.2 0.1,0.2c0.1,-0.1 0.2,-0.1 0.2,-0.1c0.2,-0.2 0.4,-0.4 0.6,-0.6c0.4,-0.4 0.6,-0.8 0.6,-1.4c-0.1,-1.5 0,-3 0,-4.4zm-57.1,-10.3l0,0c0,-0.8 0,-1.6 0,-2.5c0,-0.3 0,-0.7 0,-1c0,-0.3 -0.1,-0.4 -0.3,-0.4c-0.9,0 -1.9,0 -2.8,0c-0.4,0 -0.8,0.3 -1.2,0.3c-0.3,0 -0.3,0.1 -0.3,0.4c0,2.2 -0.1,4.4 -0.1,6.7c0,0.3 0.1,0.4 0.4,0.4c1.3,0 2.6,0 3.9,0c0.3,0 0.4,-0.1 0.4,-0.5c0,-1.2 0,-2.3 0,-3.4zm0.1,-11.3l0,0c0,-0.6 0,-1.2 0,-1.9c0,-1.1 0.2,-1.1 -1.1,-1.2c-0.3,0 -0.4,-0.1 -0.4,-0.4c0,-0.3 0,-0.5 0,-0.7c0,-0.1 -0.1,-0.1 -0.1,-0.2c0,0 -0.1,0 -0.1,0.1c-0.9,0.8 -1.7,1.7 -2.5,2.5c-0.2,0.2 -0.2,0.3 -0.2,0.5c0,1.3 0,2.6 0,3.9c0,0.2 0.1,0.3 0.3,0.3c1.1,0 1.2,0.1 1.1,1.2c0,0.2 0.1,0.3 0.3,0.3c1,0.1 1,0.1 1.7,-0.6c0.2,-0.2 0.4,-0.5 0.7,-0.7c0.2,-0.2 0.3,-0.4 0.3,-0.7c0,-0.7 0,-1.5 0,-2.4zm-0.5,22.3c-0.1,-0.8 0.2,-1.7 -0.1,-2.7c-0.9,0 -1.9,-0.1 -2.8,-0.1c-0.4,0 -0.8,0 -1.2,0c-0.2,0 -0.3,0.1 -0.3,0.3c0,1.4 0,2.7 0,4c0,0.2 0.1,0.3 0.3,0.3c0.3,0 0.6,0 0.9,0.1c0.2,0 0.3,0.2 0.3,0.3c0,0.2 0,0.4 0,0.6c0,0.4 0.1,0.5 0.5,0.6c0.5,0 1.1,0.1 1.7,-0.1c0.2,-0.1 0.7,0.1 0.8,-0.2c0.1,-0.2 0.1,-0.5 0.1,-0.9c-0.2,-0.7 -0.2,-1.3 -0.2,-2.2zm-23.9,-3.4l0,0c0,-1.4 0,-2.8 0.1,-4.2c0,-0.9 0,-0.9 -0.9,-0.9c-0.1,0 -0.2,0 -0.3,0c-0.3,0 -0.4,0.1 -0.4,0.5c0,0.3 0,0.6 0,0.9c0,1.7 0,3.4 -0.1,5.2c0,0.3 0,0.6 -0.1,0.9c-0.2,0.3 -0.2,0.7 -0.2,1c0,1.5 0,3.1 -0.1,4.5c0,0.2 0,0.3 0,0.5c0,0.2 0.2,0.3 0.4,0.2c0.3,-0.1 0.7,-0.2 0.9,-0.3c0.1,-0.1 0.2,-0.2 0.2,-0.3c0,-0.6 0,-1.1 0,-1.7c0,-0.2 0,-0.5 0.1,-0.7c0.3,-0.6 0.2,-1.2 0.2,-1.8c0.2,-1.4 0.2,-2.6 0.2,-3.8zm101.1,1.5c0,-1.5 0,-3 0.1,-4.4c0,-0.4 0,-0.7 0,-1.1c0,-0.1 -0.1,-0.1 -0.1,-0.2c0,0 -0.1,0.1 -0.1,0.1c-0.3,0.3 -0.5,0.5 -0.8,0.8c-0.4,0.3 -0.5,0.7 -0.5,1.2c0,3.1 -0.1,6.2 -0.1,9.3c0,0.1 0,0.2 0,0.4s0.2,0.3 0.3,0.3c0.2,0 0.4,0 0.6,-0.1c0.5,-0.2 0.5,-0.2 0.6,-0.8c0,-1.9 0,-3.7 0,-5.5zm-66.7,4.1c0,0.4 0,0.5 0,0.8c0,0.2 0.2,0.3 0.3,0.3c0.2,0 0.4,0 0.6,-0.1c0.4,-0.2 0.5,-0.1 0.5,0.3c0,0.4 0,0.8 0,1.2c0,0.3 0,0.7 0,1c0,0.1 0.1,0.2 0.1,0.2c0.1,-0.1 0.2,-0.1 0.2,-0.1c0.3,-0.3 0.6,-0.6 0.9,-0.9c0.2,-0.2 0.3,-0.4 0.3,-0.8c0,-0.3 0,-0.7 0,-1c0.1,-0.9 -0.1,-1.9 0.3,-2.8c0.1,-0.1 -0.1,-0.3 -0.3,-0.4c-1.1,-0.1 -1.3,-0.1 -2.1,0.7c-0.2,0.2 -0.3,0.3 -0.4,0.4c-0.3,0.5 -0.5,0.9 -0.4,1.2zm39.5,-7c0,0 0.1,0 0,0c0.1,0.4 0,0.8 0,1.2c0,0.1 0.2,0.1 0.2,0.1c0.4,-0.4 0.8,-0.8 1.2,-1.2c0.1,-0.1 0.1,-0.2 0.1,-0.3c0,-0.3 0,-0.5 0,-0.9c0,-0.2 -0.2,-0.3 -0.3,-0.3c-0.2,0 -0.4,0 -0.6,0c-0.5,0 -0.6,0 -0.6,0.5c0.1,0.4 0,0.7 0,0.9z" id="svg_2"/>
   <path d="m15.1,61.4c0,-1.8 0,-3.6 0.1,-5.4c0,-0.4 0.1,-0.7 0.4,-0.9c0.2,-0.2 0.3,-0.4 0.6,-0.5c0.6,-0.5 1,-1.1 0.8,-1.9c-0.1,-0.3 0.1,-0.4 0.2,-0.7c0.7,-0.9 1.5,-1.6 2.3,-2.4c0.3,-0.3 0.5,-0.4 0.9,-0.4c0.7,0.1 1.3,-0.1 1.7,-0.7c0.1,-0.1 0.2,-0.2 0.3,-0.3c0.6,-0.4 0.7,-1.1 0.8,-1.7c0.1,-2 0,-4 0.1,-6.1c0,-0.1 -0.1,-0.2 -0.1,-0.2c-0.1,0.1 -0.2,0.1 -0.2,0.1c-0.3,0.3 -0.6,0.5 -0.9,0.9c-0.3,0.3 -0.7,0.5 -1.1,0.4c-0.1,0 -0.3,0 -0.4,0c-0.2,0 -0.3,-0.1 -0.3,-0.3c0,-0.2 0,-0.4 0,-0.6c0,-2.9 0.1,-5.7 0.1,-8.6c0,-0.6 0.2,-1.1 0.7,-1.5c0.2,-0.2 0.3,-0.3 0.4,-0.4c0.4,-0.4 0.8,-0.6 1.3,-0.5c0.2,0 0.3,0 0.5,0c0.2,0 0.3,-0.1 0.3,-0.3c0,-0.2 0,-0.3 0,-0.5c0,-3.3 0.1,-6.7 0.1,-10c0,-0.3 0,-0.5 0,-0.7c0,-0.2 -0.1,-0.3 -0.3,-0.3c-0.3,0 -0.5,-0.1 -0.9,0c-0.2,0 -0.3,0.1 -0.4,0.2c-0.3,0.2 -0.5,0.5 -0.8,0.8c-0.5,0.4 -0.7,0.9 -0.7,1.5c0.1,0.4 -0.2,0.7 -0.3,0.9c-0.1,0.1 -0.2,0.2 -0.3,0.4c-0.4,0.5 -0.9,0.9 -1.6,0.7c-0.2,0 -0.3,0.1 -0.4,0.1c-0.2,0.1 -0.2,-0.1 -0.2,-0.2c0,-1.8 0,-3.6 0.1,-5.4c0,-0.2 0.1,-0.4 0.2,-0.5c0.2,-0.2 0.3,-0.3 0.4,-0.4c1,-1 0.8,-0.6 0.8,-1.9c0,-0.3 0.1,-0.5 0.3,-0.8c0.8,-0.8 1.7,-1.6 2.5,-2.4c0.2,-0.2 0.4,-0.3 0.7,-0.3c0.5,0 1.1,0 1.7,0c0.5,0 1.1,0.1 1.7,-0.2c0.6,0 1.2,0 1.9,0c0.2,0 0.4,0.3 0.4,0.4c0,0.7 0,1.4 0,2.1c0,0.3 0.1,0.4 0.4,0.4c0.2,0 0.3,0 0.5,0c0.4,0.1 0.6,0.2 0.6,0.6c0,0.7 0,1.3 0,2c0,0.3 0.1,0.4 0.4,0.4c0.2,0 0.3,0 0.5,0c0.4,0.1 0.6,0.2 0.6,0.6c-0.1,1.2 0.1,2.4 -0.2,3.6c-0.1,0.2 0,0.2 0.1,0.3c0.2,0.1 0.4,0 0.6,0.1c0.2,0 0.3,0 0.5,0.1c0.2,0 0.4,0.3 0.4,0.4c0,0.1 0,0.1 0,0.1c-0.4,1.1 -0.2,2.2 -0.3,3.3c0,0.1 0,0.2 0,0.3c0,0.2 0.2,0.3 0.3,0.3c0.1,0 0.2,0 0.4,0c0.4,0 0.8,0 1.1,0c0.4,0 0.7,-0.1 1.1,0.1c0,0.3 0,0.7 0,1c0,0.1 0.1,0.2 0.1,0.3c0.1,-0.1 0.2,-0.1 0.2,-0.1c0.4,-0.4 0.8,-0.8 1.2,-1.1c0.2,-0.2 0.3,-0.4 0.3,-0.7c0,-1.7 0,-3.4 0.1,-5c0,-0.3 -0.1,-0.4 -0.4,-0.4c-0.1,0 -0.2,0 -0.2,0c-0.7,-0.1 -1.2,0 -1.6,0.6c-0.1,0.1 -0.2,0.2 -0.3,0.3c-0.4,0.6 -1,0.6 -1.6,0.6c-0.2,0 -0.3,-0.1 -0.3,-0.3c0,-0.4 0,-0.8 0,-1.3c0,-0.5 0,-1 0.1,-1.5c0.3,-0.4 0.7,-0.7 1.1,-1.1c0.3,-0.3 0.5,-0.6 0.5,-1.1c0,-0.1 0,-0.2 0,-0.3c0,-0.4 0.2,-0.8 0.5,-1.1c1.1,-1.1 2.3,-2.2 3.4,-3.2c0.2,-0.2 0.3,-0.3 0.4,-0.4c0.2,-0.1 0.3,-0.3 0.5,-0.3c0.3,-0.1 0.7,-0.1 1,0c0.3,0.1 0.1,0.5 0.2,0.8c0,0.1 0,0.3 0,0.4c0,0.1 0.1,0.2 0.2,0.2c0.4,0 0.7,0.1 1.1,0c0.2,0 0.3,-0.1 0.4,-0.2c0.3,-0.2 0.6,-0.5 0.8,-0.8c0.3,-0.3 0.6,-0.5 1,-0.5c1.2,0 1.2,-0.2 1.1,0.9c0,0.1 0,0.1 0,0.1c0,0.5 -0.1,1.1 -0.1,1.7c-0.4,0.4 -0.8,0.9 -1.2,1.2c-0.4,0.3 -0.6,0.7 -0.5,1.2c0,0.1 0,0.2 0,0.3c0,0.4 -0.2,0.7 -0.4,1c-0.7,0.7 -1.5,1.5 -2.2,2.2c-0.3,0.3 -0.4,0.5 -0.4,0.9c0,3.1 -0.1,6.1 -0.1,9.1c0,0.3 0,0.6 0,0.9c-0.3,1 -0.2,2 -0.3,2.9s0,1.9 0,2.8c-0.1,4.6 -0.1,9.2 -0.2,13.8c0,0.4 0,0.9 -0.2,1.3c-0.1,0.2 -0.1,0.5 -0.1,0.7c0,1.1 -0.1,2.3 0,3.4c0,0.5 -0.1,0.9 -0.5,1.2c-0.2,0.2 -0.3,0.4 -0.6,0.5c-0.3,0.2 -0.6,0.4 -1,0.4c-0.7,-0.1 -1.5,-0.1 -2.2,-0.1c-0.3,-0.7 0,-1.5 -0.1,-2.2c0,-0.2 0,-0.3 0,-0.5c0,-0.1 -0.1,-0.2 -0.2,-0.2c-0.1,0 -0.1,0 -0.1,0c-0.4,-0.1 -0.7,0.1 -1,-0.2c0,-0.3 0,-0.7 0,-1c0,-1 0,-2 0,-3c0,-0.3 -0.1,-0.4 -0.4,-0.4c-0.3,0 -0.6,0 -0.9,0c-0.2,0 -0.3,0.2 -0.3,0.3c0,0.2 0,0.4 0,0.6c0,0.5 0,1 0,1.5c0,0.3 -0.1,0.5 -0.3,0.8c-0.6,0.5 -1.1,1.1 -1.7,1.6c-0.2,0.2 -0.4,0.4 -0.6,0.6c-0.4,0.5 -0.8,1 -0.7,1.7c0.1,0.3 -0.1,0.7 -0.3,0.9c-0.1,0.1 -0.2,0.2 -0.3,0.3c-0.6,0.6 -1.3,0.7 -2,0.6c-0.1,0 -0.2,-0.1 -0.2,-0.2c0.1,-0.1 0.1,-0.2 0.1,-0.4c0,-1 0,-1 -0.9,-1c-0.1,0 -0.2,0 -0.3,0c-0.2,0 -0.3,-0.1 -0.3,-0.3c0,-0.2 0,-0.4 0,-0.6c0,-0.5 -0.1,-0.6 -0.5,-0.6c-1,0 -2.1,0 -3.1,0c-0.8,0 -0.9,-0.1 -0.9,0.9c0,0.5 -0.2,0.9 -0.5,1.2s-0.7,0.6 -0.9,1c-0.2,0.2 -0.3,0.4 -0.3,0.7c0,1.7 0,3.4 -0.1,5c0,0.3 0.1,0.3 0.4,0.4c0.4,0.1 0.7,-0.1 1.1,0.2c0,0.3 0,0.7 0,1c0,0.2 0.1,0.3 0.4,0.4c0.3,0 0.5,0 0.7,0c0.2,0 0.3,0.1 0.3,0.3c0,0.3 0,0.6 0,0.9c0,0.2 0.1,0.3 0.3,0.3c1,0 2.1,0 3.1,0c0.3,0 0.5,0 0.9,0.1c0.1,0 0.1,0.1 0.2,0.2c0.1,0.1 0,0.2 0,0.2c0,0.4 0,0.9 0,1.4c0,0.4 0.1,0.9 -0.1,1.2c-0.2,0.4 -0.6,0.6 -0.9,1c-0.4,0.5 -1,0.6 -1.5,0.6c-1,0 -2.1,0 -3.1,0c-0.3,0 -0.3,-0.1 -0.3,-0.4c0,-0.2 0,-0.5 0,-0.8c0,-0.2 -0.1,-0.3 -0.3,-0.3c-0.8,0 -1.5,0 -2.3,-0.1c-0.2,0 -0.3,-0.1 -0.3,-0.3c0,-0.2 0,-0.4 0,-0.6c0,-0.5 0,-1 0,-1.5c0,-0.5 0,-0.5 -0.6,-0.6c-0.2,0 -0.4,0 -0.6,0c-0.2,0 -0.2,-0.1 -0.3,-0.2c0,-0.2 0,-0.5 0,-0.8c-0.5,-1.7 -0.5,-3.3 -0.5,-5l0,0zm11.1,-16.7l0,0c0,0.7 0,1.4 0,2.1c0,0.9 -0.1,0.9 0.9,0.9c0.1,0 0.2,0 0.2,0.1c0.2,0.1 0.3,0.2 0.3,0.3c0.1,0.3 0,0.6 0,0.9c0,0.1 0.1,0.2 0.2,0.2c0.2,0 0.5,0 0.7,0.1c0.3,0 0.5,0 0.7,-0.3c0.1,-0.1 0.2,-0.2 0.3,-0.3c0.3,-0.3 0.6,-0.6 0.9,-0.9c0.4,-0.3 0.9,0 1.3,-0.1c0.2,-0.1 0.4,-0.1 0.4,-0.4c0,-1.3 0,-2.6 0,-3.9c0,-0.2 -0.2,-0.4 -0.4,-0.4c-0.2,0 -0.4,0 -0.6,0.1c-0.3,0.1 -0.4,-0.1 -0.5,-0.3c0,-0.3 0,-0.7 0,-1c0,-0.2 -0.2,-0.3 -0.4,-0.3c-0.8,0.3 -1.5,0.1 -2.3,0.2c-0.4,0 -0.9,0 -1.4,0c-0.3,0 -0.4,0.1 -0.4,0.4c0.1,0.8 0.1,1.7 0.1,2.6zm1.9,-14.3l0,0c0,-0.7 0,-1.3 0,-2c0,-0.1 -0.1,-0.3 -0.2,-0.3c-0.4,-0.1 -0.8,-0.1 -1.2,0c-0.1,0 -0.1,0.1 -0.1,0.2c0,0.2 -0.1,0.4 -0.1,0.6c0,1.1 0,2.3 0,3.4c0,0.2 0,0.5 -0.1,0.7c-0.2,0.4 -0.2,0.8 -0.2,1.2c0,0.7 0,1.4 0,2.1c0,0.2 0,0.3 0,0.5c0,0.2 0.2,0.3 0.4,0.2c0.2,-0.1 0.5,-0.1 0.7,-0.1c0.4,0 0.9,0 1.4,0c0.4,0 0.7,-0.2 0.7,-0.6c0,-1.1 0,-2.3 0,-3.4c0,-0.2 -0.1,-0.3 -0.4,-0.4c-0.3,0 -0.7,-0.1 -1,-0.1c-0.2,-0.3 -0.1,-0.7 -0.1,-1.1c0.2,-0.2 0.2,-0.6 0.2,-0.9zm8.8,2.9c0.1,0 0.1,0 0,0c0.1,-0.7 0.1,-1.3 0.1,-2c0,-0.6 0,-1.1 0,-1.7c-0.6,-0.3 -1.2,-0.1 -1.8,-0.2c-0.2,0 -0.3,0 -0.5,0c-0.4,0 -0.7,0.2 -0.7,0.7c0,0.7 0,1.3 0,2c0,0.5 0,0.5 0.6,0.6c0.1,0 0.2,0 0.4,0c0.5,0 0.5,0.1 0.5,0.5c0,0.9 0,1.9 0,2.8c0,1.3 -0.1,1.1 1.2,1.1c0.2,0 0.3,-0.2 0.3,-0.3c-0.1,-1.2 -0.1,-2.3 -0.1,-3.5z" id="svg_3"/>
  </g>
  <g id="svg_4">
   <path d="m233.1,44c0,-2.9 0,-5.8 0,-8.6c0,-0.3 0,-0.5 -0.1,-0.9c0,-0.1 -0.1,-0.1 -0.2,-0.1c-0.3,0.3 -0.5,0.5 -0.8,0.8c-0.3,0.3 -0.6,0.4 -1,0.4c-1.1,0 -1,-0.1 -1,1.1c0,3.8 0,7.6 0,11.4c0,0.3 0,0.6 0,0.9s-0.1,0.5 -0.3,0.6c-0.2,0.2 -0.3,0.3 -0.5,0.5c-0.9,0.9 -0.6,0.8 -1.8,0.8c-0.4,0 -0.6,0.1 -0.9,0.4c-0.1,0.1 -0.1,0.1 -0.2,0.2c-0.3,0.3 -0.5,0.6 -0.9,0.8c-0.4,0.2 -0.9,0.2 -1.4,0.3c-0.3,0.1 -0.4,0.1 -0.6,0.3c-0.8,0.8 -1.5,1.5 -2.2,2.3c-0.3,0.3 -0.5,0.4 -1,0.4c-0.3,0 -0.5,0 -0.8,0c-0.2,0 -0.2,-0.1 -0.3,-0.2c0,-0.1 0,-0.1 0,-0.1c-0.1,-0.4 0.2,-0.8 -0.2,-1c-0.2,-0.2 -0.6,-0.1 -0.9,-0.1c-0.3,0 -0.3,-0.1 -0.3,-0.4c0,-0.2 0,-0.4 0,-0.6c0,-0.1 -0.1,-0.1 -0.1,-0.2c0,0 -0.1,0 -0.1,0.1c-0.3,0.3 -0.6,0.6 -1,0.9c-0.1,0.1 -0.3,0.2 -0.4,0.2c-0.3,0.1 -0.6,0 -1,0c-0.2,0 -0.3,-0.1 -0.3,-0.3s0,-0.3 0,-0.5c0,-0.1 -0.1,-0.2 -0.1,-0.3c-0.1,0.1 -0.2,0.1 -0.3,0.1c-0.6,0.6 -1.2,1.2 -1.8,1.8c-0.2,0.2 -0.3,0.4 -0.5,0.5c-0.5,0.4 -1.1,0.4 -1.7,0.3c-0.1,0 -0.1,-0.1 -0.1,-0.2c0,-0.2 0,-0.5 0,-0.7c0,-0.5 -0.1,-0.5 -0.6,-0.5c-0.8,-0.1 -0.9,-0.1 -0.9,-0.9c-0.1,-0.6 0.2,-1.3 -0.1,-1.9c-0.5,0.4 -1,0.9 -1.4,1.3c-1,0.9 -1.9,1.9 -2.8,2.9c-0.4,0.4 -0.9,0.4 -1.5,0.3c-0.1,-0.1 -0.2,-0.2 -0.2,-0.3c-0.1,-0.1 -0.1,-0.2 -0.1,-0.2c0,-0.3 -0.1,-0.6 -0.1,-1c-0.3,-0.3 -0.7,-0.1 -1,-0.1c-0.5,0 -1,-0.1 -1.4,0.2c-0.2,0.1 -0.4,-0.1 -0.4,-0.3c0,-0.8 0,-1.6 0,-2.3c0,-0.2 0,-0.3 0.1,-0.4c0.2,-0.3 0.4,-0.7 0.8,-1c0.6,-0.5 0.6,-1 0.6,-1.7c0,-3.4 0,-6.8 0,-10.2c0,-0.5 -0.1,-1 0.2,-1.5c0.1,-0.1 0,-0.2 0,-0.2c0,-0.3 -0.1,-0.5 -0.4,-0.5c-0.2,0 -0.4,0 -0.6,0c-0.5,0 -0.7,-0.2 -0.7,-0.8c0,-1.1 0,-2.2 0,-3.3c0,-0.1 -0.1,-0.2 -0.1,-0.2s-0.2,0 -0.2,0.1c-0.2,0.1 -0.3,0.3 -0.4,0.4c-0.8,0.7 -0.5,0.6 -1.5,0.6c-0.2,0 -0.3,0 -0.5,0c-0.2,0 -0.2,0.1 -0.3,0.2c-0.1,0.1 0,0.2 -0.1,0.4c0,4.7 0,9.4 0,14.1c0,0.1 0,0.2 0,0.2c0,0.3 0.1,0.4 0.4,0.4c0.4,0 0.8,0 1.2,0s0.8,0 1.1,0c0.2,0 0.2,0.1 0.3,0.2c0,0.2 0,0.5 0,0.7c0,0.3 -0.1,0.5 -0.3,0.6c-0.5,0.4 -0.9,0.9 -1.3,1.4c-0.2,0.2 -0.4,0.4 -0.5,0.6c-0.5,0.5 -0.9,1.1 -0.8,1.9c0,0.1 -0.1,0.2 -0.1,0.3c-0.1,0.2 -0.3,0.4 -0.4,0.6c-0.3,0.4 -0.7,0.6 -1.1,1c-0.4,0 -0.9,0.1 -1.3,0.1c-0.4,0 -0.8,0 -1.2,0c-0.4,0 -0.4,-0.1 -0.4,-0.4c0,-0.8 0,-1.6 -0.1,-2.3c0,-0.1 -0.1,-0.2 -0.2,-0.1c-0.4,0.3 -0.7,0.6 -1.1,1c-0.3,0.3 -0.5,0.4 -0.9,0.3c-0.2,0 -0.3,0 -0.5,0c-0.2,0 -0.3,-0.1 -0.3,-0.3c0,-0.4 0,-0.7 0,-1.1c0,-0.5 0,-1 0,-1.6c0.4,-0.4 0.7,-0.8 1.1,-1.1c0.3,-0.2 0.4,-0.5 0.4,-0.9c0,-4.2 0,-8.4 0,-12.6c0,-0.1 0,-0.2 0,-0.4c0,-0.2 -0.1,-0.2 -0.2,-0.3c-0.3,0 -0.6,0 -1,0c-0.2,0 -0.3,0.2 -0.3,0.3c0,0.3 0,0.6 0,0.9c0,1.9 -0.1,3.8 0,5.7c0,0.6 -0.2,1 -0.6,1.3c-0.1,0.1 -0.1,0.1 -0.2,0.2c-0.8,0.8 -0.7,0.5 -0.7,1.7c0,0.4 -0.1,0.6 -0.4,0.9c-0.2,0.1 -0.3,0.3 -0.4,0.4c-0.7,0.5 -1.1,1.2 -0.9,2.1c0.1,0.4 -0.1,0.6 -0.4,0.9c-1.7,1.7 -3.5,3.5 -5.2,5.3c-0.3,0.3 -0.5,0.4 -0.9,0.4c-0.8,0 -1.5,0 -2.2,0c-0.2,0 -0.3,-0.1 -0.3,-0.3c0,-0.3 0,-0.6 0,-0.9c0,-0.2 -0.1,-0.3 -0.3,-0.3c-0.3,0 -0.5,0 -0.9,0c-0.2,0 -0.3,-0.1 -0.3,-0.3c0,-0.3 0,-0.6 0,-0.9c0,-0.2 -0.2,-0.3 -0.3,-0.3c-0.1,0 -0.1,0 -0.1,0c-0.3,-0.1 -0.7,0.2 -0.9,-0.1s-0.1,-0.6 -0.1,-1c0,-0.1 0,-0.1 0,-0.1c-0.1,-0.1 -0.1,-0.1 -0.1,-0.2c0,0 -0.1,0.1 -0.1,0.1c-0.2,0.2 -0.4,0.3 -0.5,0.5c-0.8,0.8 -0.8,0.5 -0.8,1.7c0,0.5 -0.2,0.9 -0.5,1.2c-0.3,0.3 -0.5,0.6 -0.9,0.9c-0.3,0.2 -0.4,0.5 -0.4,0.9c0,1.1 0.1,0.8 -0.7,1.7c0,0.1 -0.1,0.1 -0.1,0.1c-0.8,0.8 -0.7,0.5 -0.6,1.6c0,0.4 -0.1,0.8 -0.5,1c-0.1,0.1 -0.1,0.1 -0.1,0.1c-0.6,0.5 -1.1,1.2 -0.9,2.1c0.1,0.2 -0.1,0.4 -0.2,0.5c-0.4,0.4 -0.8,0.7 -1,1.2c-0.1,0.2 -0.3,0.2 -0.5,0.3c-0.1,0.1 -0.2,0.1 -0.4,0.1c-1.7,0 -3.3,0 -4.9,0c-0.3,0 -0.4,-0.1 -0.4,-0.4c0,-0.3 0,-0.6 0,-1c0,-2.9 0,-5.8 0,-8.7c0,-0.4 0.1,-0.6 0.3,-0.9c0.3,-0.3 0.6,-0.6 0.9,-0.9c0.2,-0.2 0.3,-0.4 0.3,-0.6c-0.2,-0.8 0.2,-1.4 0.8,-1.9c0.1,-0.1 0.1,-0.1 0.1,-0.1c0.6,-0.5 0.9,-1.1 0.8,-1.9c-0.1,-0.4 0.1,-0.7 0.4,-1c1.1,-1.1 2.3,-2.3 3.4,-3.4c0.4,-0.4 1,-0.7 1.6,-0.6c1.4,0.1 2.9,0 4.2,0c0.6,0 0.8,0.1 0.8,-0.7c0,-0.1 0,-0.2 0,-0.2c-0.1,-0.4 0.2,-0.6 0.3,-0.9c0.1,-0.1 0.1,-0.1 0.2,-0.2c0.3,-0.3 0.6,-0.6 0.9,-1s0.1,-0.9 0.1,-1.3c0,-0.1 0,-0.2 0.1,-0.2c0.3,-0.4 0.2,-0.8 0.2,-1.2c0,-0.3 -0.1,-0.4 -0.4,-0.4c-0.4,0 -0.9,0 -1.3,0c-0.3,0 -0.6,0 -1,0c-0.3,0 -0.4,-0.2 -0.5,-0.5c0,-0.1 0,-0.1 0,-0.1c-0.1,-0.3 0.1,-0.6 -0.2,-0.8c-0.2,-0.1 -0.5,-0.1 -0.7,-0.1c-0.4,-0.1 -0.5,-0.2 -0.6,-0.6c0,-0.2 0,-0.4 -0.1,-0.6c0,-0.1 -0.1,-0.2 -0.3,-0.2c-0.3,0 -0.5,0 -0.8,-0.1c-0.3,0 -0.4,-0.2 -0.4,-0.5c-0.1,-0.3 0.2,-0.7 -0.2,-0.9c-0.2,-0.1 -0.5,-0.1 -0.8,-0.1c-0.1,0 -0.2,0 -0.3,0c-0.1,-0.1 -0.2,-0.1 -0.2,-0.2c0,-1 0,-1.9 0,-2.9c0,-0.4 0,-0.7 0,-1.1c0,-0.2 -0.1,-0.3 -0.3,-0.3c-0.3,0 -0.6,0 -1,-0.1c-0.1,0 -0.2,-0.1 -0.2,-0.2c0,-0.1 0,-0.3 0,-0.4c0,-2.6 0,-5.2 0,-7.7c0,-0.4 0.1,-0.7 0.4,-1c0.8,-0.8 1.6,-1.6 2.3,-2.3c0.3,-0.3 0.4,-0.5 0.4,-1c0,-1.1 -0.2,-0.8 0.7,-1.7c0.1,-0.1 0.2,-0.3 0.3,-0.3c0.3,-0.3 0.4,-0.5 0.4,-1c0,-0.1 0,-0.3 0,-0.4c-0.1,-0.5 0.2,-0.9 0.5,-1.3c0.6,-0.6 1.3,-1.3 2,-2c0.4,-0.4 0.8,-0.5 1.3,-0.5c1.8,0 3.7,0 5.4,0c0.3,0 0.7,-0.1 1.1,0.1c0,0.3 0.1,0.6 0.1,1c0,0.3 0.1,0.4 0.4,0.4c0.3,0.1 0.8,-0.1 1,0.2c0,0.3 0.1,0.6 0.1,1c0,0.3 0.1,0.4 0.4,0.4c0.8,0 1.6,0 2.4,0c0.2,0 0.3,0.1 0.3,0.3c0,0.5 0,1.1 0,1.7c0,0.5 -0.2,1 -0.5,1.3c-0.1,0.1 -0.2,0.2 -0.3,0.3c-0.6,0.5 -1.1,1.1 -0.9,2.1c0.1,0.2 -0.1,0.4 -0.2,0.5c-0.9,0.9 -1.7,1.7 -2.6,2.6c-0.1,0.1 -0.3,0.2 -0.4,0.2c-0.9,-0.1 -1.7,0.1 -2.5,-0.1c-0.2,-0.7 -0.1,-1.5 -0.1,-2.2c0,-0.3 0,-0.6 0,-0.9c-0.1,-0.4 0.2,-0.9 -0.1,-1.2c-0.3,-0.3 -0.7,-0.1 -1.1,-0.1c-0.1,0 -0.2,-0.1 -0.3,-0.2c-0.1,-0.4 0.1,-0.8 -0.2,-1.2c-0.4,0 -0.7,-0.1 -1.1,-0.1c-0.1,0 -0.2,-0.1 -0.2,-0.2c0,-0.1 0,-0.2 0,-0.3c0.1,-1.1 0,-1 -1,-1c-0.7,0 -0.7,0 -0.7,0.8c0,0.2 0,0.3 0,0.5c0,0.2 -0.1,0.4 -0.2,0.5c-0.2,0.2 -0.4,0.4 -0.6,0.6c-0.8,0.8 -0.6,0.5 -0.6,1.7c0,0.2 0.1,0.3 0.3,0.3c0.3,0 0.6,0 1,0.1c0.1,0 0.1,0.1 0.2,0.2c0.1,0.1 0.1,0.3 0.1,0.4c0,0.5 0,1.1 0,1.7c0,0.9 -0.1,0.9 1,0.9c0.3,0 0.5,0 0.8,-0.2s0.6,-0.1 1,-0.1c0.1,0 0.2,0.1 0.2,0.2c0,0.3 0,0.6 0.1,1c0,0.4 0.1,0.5 0.6,0.5c0.2,0 0.3,0 0.5,-0.1c0.5,-0.3 1.1,-0.1 1.7,-0.2c0.2,0 0.4,0.2 0.4,0.4c0,0.3 0,0.6 0.1,1c0,0.2 0.2,0.3 0.3,0.2c0.2,-0.1 0.4,-0.2 0.6,-0.2c0.3,0 0.5,0.2 0.5,0.4c0.1,0.3 0.1,0.5 0.1,0.9c0,0.1 0.1,0.1 0.2,0.1c0.3,-0.3 0.6,-0.6 0.9,-0.8c0.3,-0.3 0.4,-0.5 0.4,-1c0,-0.2 0,-0.4 0,-0.6c0,-0.2 0.1,-0.4 0.2,-0.5c0.3,-0.3 0.5,-0.5 0.8,-0.8c0.3,-0.3 0.5,-0.7 0.5,-1.2c-0.1,-0.6 0.2,-1.2 0.6,-1.6c0.2,-0.2 0.4,-0.4 0.6,-0.6c0.3,-0.2 0.5,-0.3 0.9,-0.3c0.7,0 1,0.1 0.9,0.9c0,0.4 0,0.8 -0.2,1.2c-0.1,0.3 -0.1,0.7 -0.1,1.1c0,0.5 0,1 0,1.5c-0.3,0.4 -0.6,0.7 -1,1.1c-0.1,0.1 -0.2,0.2 -0.3,0.3c-0.2,0.2 -0.2,0.3 -0.2,0.5c0,1.2 0,2.5 0,3.8c0,0.3 0.1,0.4 0.5,0.4c0.3,0 0.5,0 0.8,0c0.2,0 0.2,0.1 0.3,0.2c0.1,0.1 0,0.3 0,0.4c0,0.3 -0.1,0.6 0.2,0.8c0.4,0.2 0.8,0.1 1.2,0.1c0.1,0 0.1,-0.1 0.1,-0.2c0,-0.2 0.1,-0.4 0.1,-0.6c-0.1,-0.5 0.2,-0.9 0.5,-1.2c0.3,-0.3 0.5,-0.5 0.8,-0.8c0.3,-0.3 0.4,-0.6 0.4,-1.1c0,-1.9 0,-3.8 0,-5.7c0,-0.3 0,-0.5 0,-0.9c0,-0.3 0.1,-0.4 0.3,-0.6c1.8,-1.8 3.6,-3.6 5.4,-5.4c0.2,-0.2 0.4,-0.3 0.6,-0.3s0.5,0 0.9,0c0.2,0 0.3,0.1 0.3,0.3c0,0.3 0,0.6 0,1c0,0.5 0,1 0,1.5c-0.3,0.4 -0.6,0.7 -1,1.1c-0.5,0.5 -0.7,1 -0.7,1.7c0,2.4 0,4.7 0,7c0,0.2 0,0.4 0,0.6c0,0.1 0.1,0.2 0.2,0.1c0.3,-0.3 0.6,-0.5 0.9,-0.8c0.5,-0.5 1,-0.6 1.7,-0.5c0.2,0 0.4,0.3 0.4,0.4c0,1.2 0,2.4 0,3.7c-0.3,0.6 -0.2,1.2 -0.2,1.8c0,0.1 0.1,0.1 0.2,0.1c0.1,-0.1 0.2,-0.2 0.3,-0.2c0.8,-0.8 1.7,-1.7 2.5,-2.5c0.2,-0.2 0.4,-0.3 0.8,-0.3c0.7,0 1.4,0 2,0c0.2,0 0.3,0.1 0.3,0.3c0,1 0,2 0,3c0,0.3 0,0.6 0.1,0.9c0,0.1 0.1,0.1 0.2,0.1c0.1,-0.1 0.2,-0.2 0.3,-0.2c0.8,-0.8 1.5,-1.5 2.3,-2.2c0.3,-0.3 0.5,-0.6 0.4,-1.1c0,-0.2 0,-0.4 0,-0.6s0.1,-0.3 0.2,-0.4c0.2,-0.3 0.5,-0.5 0.8,-0.8c0.3,-0.3 0.6,-0.4 1,-0.4c1,0.1 1,-0.2 1,1c0,0.1 0,0.2 0,0.3c0,0.1 0.1,0.2 0.2,0.2c0.1,0 0.1,0 0.1,0c0.3,0.1 0.8,-0.1 1,0.2c0,0.3 0.1,0.6 0.1,1c0,0.3 0.1,0.4 0.4,0.4c0.7,0 1.4,0 2,0c0.4,0 0.4,0.1 0.4,0.4c0,0.2 0,0.5 0,0.7c0,0.3 -0.1,0.5 -0.3,0.8c-0.3,0.3 -0.5,0.5 -0.8,0.8s-0.4,0.5 -0.3,0.9c0.2,0.8 -0.2,1.3 -0.8,1.8c-0.2,0.1 -0.3,0.3 -0.4,0.4c-0.2,0.2 -0.3,0.4 -0.3,0.6c0,0.4 0,0.8 0,1.2c0,2.6 0,5.2 0,7.7c0,0.3 0,0.6 0,1c0,0.1 0.1,0.2 0.2,0.2c0.3,0 0.6,0 1,0c0.5,0 1,0 1.5,0c0.1,0 0.2,0.1 0.2,0.2c0,0.8 0,1.6 0.1,2.4c0,0.1 0.1,0.1 0.1,0.1c0.1,0 0.1,0 0.2,0c0.1,0 0.1,-0.1 0.1,-0.1c0.4,-0.4 0.8,-0.8 1.1,-1.1c0,-0.5 0.1,-1 0.1,-1.5c0,-3.2 0,-6.4 0,-9.6c0,-0.3 0,-0.6 0,-1c0,-0.1 -0.1,-0.2 -0.2,-0.2c-0.1,0 -0.1,0 -0.1,0c-0.3,0 -0.6,-0.1 -1,-0.1c-0.2,-0.3 -0.1,-0.7 -0.1,-1.1c0,-0.4 0,-0.9 0,-1.3c0,-0.3 0.1,-0.5 0.3,-0.6c0.3,-0.3 0.7,-0.7 1,-1c0.2,-0.2 0.4,-0.2 0.6,-0.2c0.8,0 1.5,0 2.2,0c0.2,0 0.3,-0.1 0.4,-0.2c0.5,-0.4 0.9,-0.9 1.3,-1.4c0.1,-0.1 0,-0.1 -0.1,-0.2c-0.4,-0.1 -0.8,0.1 -1.2,-0.2c-0.1,-0.4 -0.1,-0.7 -0.1,-1.1c0,-0.2 -0.1,-0.2 -0.2,-0.3c-0.1,0 -0.1,0 -0.1,0c-0.3,-0.1 -0.8,0.1 -1.1,-0.2c0,-0.4 -0.1,-0.7 -0.1,-1.1c0,-0.2 0,-0.4 0,-0.6c-0.1,-0.4 0.1,-0.7 -0.2,-1.1c-0.3,0 -0.6,-0.1 -1,-0.1c-0.3,0 -0.4,-0.1 -0.4,-0.4c0,-0.7 0,-1.4 0,-2c0,-0.4 -0.1,-0.5 -0.5,-0.5c-0.2,0 -0.4,0 -0.6,0c-0.4,0 -0.6,-0.3 -0.5,-0.6c0.3,-0.7 0.2,-1.5 0.2,-2.2c0,-0.5 0,-1.1 0,-1.6c0,-0.2 0.1,-0.4 0.2,-0.5c1.3,-1.3 2.6,-2.6 3.9,-4c0.2,-0.2 0.4,-0.3 0.8,-0.3c0.2,0 0.4,0 0.6,0c0.2,0 0.3,0.1 0.3,0.2c0,0.9 0,1.8 0,2.7c0,0.1 -0.2,0.3 -0.3,0.4c-0.3,0.3 -0.6,0.6 -0.9,1c-0.1,0.1 -0.1,0.2 -0.1,0.3c0.1,0 0.2,0.1 0.3,0.1c0.3,0 0.5,0 0.8,0c0.2,0 0.2,0.1 0.3,0.2c0.1,0.4 -0.1,0.8 0.2,1.2c0.4,0 0.7,0.1 1.1,0.1c0.1,0 0.2,0.1 0.2,0.2c0,0.5 0,1 0,1.5c0,0.3 0,0.6 0,1c0,0.1 0.1,0.2 0.2,0.2c0.1,0 0.1,0 0.1,0c0.3,0 0.6,0 1,0.1c0.2,0.3 0.1,0.7 0.1,1.1c0,0.3 0,0.5 0,0.9c0,1 -0.1,1 1,1c0.1,0 0.2,0 0.3,0c0.3,0 0.4,0.2 0.4,0.5c0,0.4 0,0.9 0,1.3c0,0.3 0,0.6 0,1c0,0.2 0.1,0.3 0.3,0.3c0.3,0 0.5,0 0.9,0c0.2,0 0.3,0.1 0.3,0.3c0,0.3 0,0.5 0,0.7c0,0.3 0.1,0.4 0.5,0.4c0.8,0 1.6,0 2.3,0c0.6,-0.4 1.1,-1.1 1.7,-1.6c0.4,-0.4 0.8,-0.8 1.2,-1.2c0.2,-0.3 0.5,-0.4 0.9,-0.3c0.3,0 0.5,0 0.8,0c0.2,0 0.3,0.1 0.3,0.3c0,0.3 0,0.5 0,0.9c0,0.2 0.1,0.3 0.3,0.3c0.3,0 0.5,0 0.9,0c0.2,0 0.3,0.2 0.3,0.3c0,0.3 0,0.5 0,0.9c0,0.2 0.2,0.3 0.3,0.3c0.8,0 1.6,0 2.3,0c0.2,0 0.3,0.1 0.3,0.3c0.1,1.2 0.1,1.2 -0.8,2c-0.6,0.6 -1.2,1.3 -1.9,1.9c-0.2,0.2 -0.3,0.4 -0.3,0.6c0,0.2 0,0.3 0,0.5c0,3.9 0,7.7 0,11.7c0,0.2 0,0.5 0,0.7c0,0.1 0.1,0.1 0.1,0.2c0,0 0.1,0 0.1,-0.1c0.3,-0.3 0.6,-0.6 0.9,-0.9c0.3,-0.3 0.6,-0.5 1.1,-0.5c0.7,0 0.8,-0.1 0.8,0.7c0,0.7 0,1.5 0,2.2c0,0.1 0,0.1 0.1,0.1s0.2,0 0.2,0c0.1,-0.1 0.1,-0.1 0.2,-0.2c0.3,-0.4 0.6,-0.7 1,-1.1c0,-0.5 0.1,-1 0.1,-1.5c0,-3.2 0,-6.4 0,-9.6c0,-0.3 0,-0.6 0,-1c0,-0.1 -0.1,-0.2 -0.2,-0.2c-0.3,-0.1 -0.5,0 -0.9,-0.1c-0.2,0 -0.3,-0.2 -0.3,-0.3c0,-0.8 -0.1,-1.6 0,-2.3c0,-0.3 0.2,-0.5 0.4,-0.8c0.3,-0.4 0.7,-0.8 1.1,-1.1c0.4,-0.2 0.9,-0.1 1.3,-0.1c0.5,0 1.1,0 1.6,-0.1c0.4,-0.4 0.8,-0.7 1.1,-1.1c1,-1 2.1,-2 3.1,-3.1c0.3,-0.3 0.6,-0.5 1.1,-0.4c0.3,0 0.5,0 0.8,0.1c0.1,0 0.2,0.1 0.2,0.2c0,0.3 0,0.5 0.1,0.9c0,0.3 0.1,0.4 0.5,0.4c0.3,0 0.5,0 0.8,0c0.2,0 0.2,0.1 0.3,0.2c0.1,0.3 0.1,0.5 0.1,0.9c0,0.1 0.1,0.1 0.2,0.1c0.3,-0.3 0.5,-0.5 0.8,-0.8c0.2,-0.3 0.5,-0.4 0.9,-0.4c1.2,0.1 1.1,-0.2 1.1,1.1c0,1 0,1.9 0,2.9c0,0.3 -0.1,0.5 -0.3,0.8c-0.1,0.1 -0.1,0.1 -0.1,0.1c-0.4,0.4 -0.7,0.8 -1.1,1.2c0,0.5 0,1 0,1.6c0,4.1 0,8.2 0,12.4c0,0.3 0,0.6 0,0.9s-0.1,0.5 -0.3,0.6c-0.2,0.1 -0.3,0.3 -0.4,0.4c-0.8,0.8 -0.5,0.7 -1.6,0.6c-0.4,0 -0.7,0.1 -1,0.4c-0.8,0.8 -1.6,1.6 -2.4,2.4c-0.3,0.3 -0.5,0.4 -0.9,0.4c-0.7,-0.1 -1.2,0.2 -1.7,0.7c-0.2,0.3 -0.5,0.4 -0.6,0.7c-0.2,0.2 -0.4,0.3 -0.6,0.3c-1.1,0 -1,0.2 -1,-1c0,-0.2 0,-0.3 -0.1,-0.5c0,-0.1 -0.1,-0.2 -0.3,-0.2c-0.3,0 -0.5,0 -0.9,0c-0.2,0 -0.3,-0.1 -0.3,-0.3c0,-0.3 0,-0.6 0,-0.9c0,-0.1 -0.1,-0.2 -0.1,-0.2c0,0 -0.2,0 -0.2,0.1c-0.2,0.1 -0.3,0.3 -0.4,0.4c-0.2,0.2 -0.5,0.4 -0.7,0.7c-0.3,0.3 -0.5,0.4 -1,0.4c-0.6,-0.1 -0.7,-0.1 -0.8,-0.8c0,-0.2 0,-0.3 -0.1,-0.5c0,-0.1 -0.1,-0.1 -0.2,-0.1c-0.2,0.2 -0.4,0.4 -0.6,0.6c-0.6,0.6 -1.3,1.2 -1.9,1.9c-0.3,0.3 -0.5,0.4 -0.9,0.3c-0.3,0 -0.5,0 -0.8,0c-0.2,0 -0.3,-0.1 -0.3,-0.3c0,-0.3 0,-0.6 0,-0.9c0,-0.2 -0.2,-0.3 -0.3,-0.3c-0.3,0 -0.5,0 -0.9,0c-0.2,0 -0.2,-0.1 -0.3,-0.2c0,-0.3 0,-0.6 0,-1c-0.3,-3 -0.3,-5.9 -0.3,-8.7zm-69.2,15.6c0,0.8 0,1.6 0,2.4c0,0.2 0,0.3 0.1,0.4c0.1,0.1 0.2,-0.1 0.3,-0.2c0.8,-0.8 1.6,-1.6 2.4,-2.4c0.3,-0.2 0.4,-0.5 0.4,-0.9c0,-1.2 -0.1,-0.8 0.7,-1.7c0.1,-0.1 0.2,-0.2 0.3,-0.3c0.4,-0.4 0.5,-0.8 0.5,-1.3c-0.1,-0.6 0.1,-1.1 0.6,-1.5c0.2,-0.1 0.3,-0.3 0.4,-0.4c0.3,-0.3 0.5,-0.6 0.4,-1.1c-0.1,-0.6 0.2,-1.1 0.6,-1.5c0.2,-0.2 0.5,-0.4 0.7,-0.7c0.1,-0.1 0,-0.1 0,-0.2c0,-0.1 -0.1,-0.1 -0.1,-0.1c-0.8,0 -1.5,0 -2.2,0c-0.3,0 -0.5,0.1 -0.8,0.3c-0.8,0.8 -1.6,1.6 -2.4,2.4c-0.2,0.2 -0.4,0.4 -0.3,0.8c0.2,0.8 -0.2,1.4 -0.8,1.9c-0.2,0.1 -0.3,0.3 -0.4,0.4c-0.3,0.3 -0.5,0.6 -0.5,1c0.1,1 0.1,1.8 0.1,2.7zm42.2,-18.4c0,0 0,0 0,0c0,2.1 0,4.2 0,6.3c0,0.1 0.1,0.3 0.1,0.3c0.1,0.1 0.2,-0.1 0.3,-0.1c0.7,-0.7 1.4,-1.5 2.2,-2.2c0.3,-0.3 0.4,-0.6 0.4,-1.1c0,-2.9 0,-5.8 0,-8.6c0,-1.6 0.2,-1.3 -1.3,-1.3c-0.4,0 -0.9,0 -1.3,0.1c-0.2,0 -0.3,0.2 -0.3,0.3c0,0.2 0,0.3 0,0.5c-0.1,1.9 -0.1,3.9 -0.1,5.8zm16.5,-0.1c0,0 0,0 0,0c0,2 0,4 0,5.9c0,0.2 0,0.5 0.1,0.7c0,0.1 0.1,0.2 0.1,0.2c0.4,0.1 0.8,0.1 1.2,0c0.1,0 0.1,-0.1 0.1,-0.2c0,-0.2 0.1,-0.5 0.1,-0.7c0,-3.9 0,-7.9 0,-11.8c0,-0.2 0,-0.4 0,-0.6c0,-0.2 -0.1,-0.3 -0.3,-0.3c-0.2,0 -0.4,0 -0.6,0c-0.5,0 -0.5,0.1 -0.5,0.5c-0.2,2.1 -0.2,4.2 -0.2,6.3zm25.5,-0.4c0,-2 0,-4 0,-5.9c0,-0.2 0,-0.5 -0.1,-0.7c0,-0.1 -0.1,-0.2 -0.1,-0.2c-0.4,-0.1 -0.8,-0.1 -1.2,0.1c-0.1,0 -0.1,0.1 -0.1,0.2c0,0.1 0,0.2 0,0.4c0,4.1 0,8.2 0,12.4c0,0.6 0.1,0.6 0.6,0.6c0.2,0 0.4,0 0.6,0c0.2,0 0.3,-0.2 0.3,-0.3s0,-0.3 0,-0.5c0,-2.1 0,-4.1 0,-6.1zm-69,5.1c0,-0.1 0,-0.1 0,0c0.5,-0.1 1,-0.1 1.5,-0.1c0.3,-0.3 0.7,-0.6 1.1,-1c0.1,-0.1 0.2,-0.2 0.3,-0.3c0.2,-0.2 0.3,-0.4 0.3,-0.8c0,-0.2 0,-0.5 0,-0.7c0,-0.3 -0.1,-0.4 -0.4,-0.4c-0.3,0 -0.5,0 -0.7,0c-0.3,0 -0.3,-0.1 -0.3,-0.4c0,-0.1 0,-0.1 0,-0.1c0,-1.1 0,-1 -1,-1c-0.1,0 -0.2,0 -0.3,0c-0.1,0 -0.2,0.1 -0.3,0.2c0,0.2 -0.1,0.5 0,0.7c0,0.3 -0.1,0.5 -0.3,0.8c-0.4,0.4 -0.8,0.8 -1.1,1.1c-0.2,0.2 -0.3,0.3 -0.3,0.5c0,1.5 -0.2,1.3 1.2,1.3c0,0.2 0.2,0.2 0.3,0.2z" id="svg_5"/>
   <path d="m239.1,19c0,0.1 0,0.1 0,0.1c0,0.4 0.1,0.9 -0.1,1.3c-0.2,0.4 -0.6,0.6 -0.9,1c-0.1,0.1 -0.2,0.2 -0.3,0.3c-0.2,0.2 -0.3,0.4 -0.3,0.6c0,0.1 0,0.2 0,0.3c0.1,1.2 -0.7,1.9 -1.6,2.5c-0.1,0.1 -0.3,0.1 -0.4,0.1c-0.7,0 -1.3,0 -2,0c-0.2,0 -0.4,-0.2 -0.4,-0.4c0,-0.1 0,-0.3 0,-0.4c0,-0.8 -0.2,-0.7 -0.8,-0.7c-0.5,0 -1.1,0 -1.6,0c-0.3,0 -0.5,-0.2 -0.5,-0.5c0,-0.1 0,-0.1 0,-0.1c0.1,-0.8 -0.1,-1.6 0.1,-2.4c0.5,-0.5 1,-1 1.5,-1.6c0.9,-0.9 1.8,-1.8 2.7,-2.7c0.4,-0.4 0.9,-0.4 1.5,-0.3c0.1,0 0.2,0.2 0.2,0.3c0.1,0.3 0,0.5 0.1,0.9c0,0.4 0.2,0.6 0.6,0.4c0.6,-0.2 1.3,-0.2 1.9,-0.2c0.3,0 0.4,0.1 0.4,0.4c-0.1,0.3 -0.1,0.7 -0.1,1.1z" id="svg_6"/>
  </g>
 </g>

</svg>