<?xml version="1.0" encoding="utf-8"?>
<!-- Generator: Adobe Illustrator 26.1.0, SVG Export Plug-In . SVG Version: 6.00 Build 0)  -->
<svg version="1.1" id="Layer_1" xmlns="http://www.w3.org/2000/svg" xmlns:xlink="http://www.w3.org/1999/xlink" x="0px" y="0px"
	 viewBox="0 0 2000 645" style="enable-background:new 0 0 2000 645;" xml:space="preserve">
<style type="text/css">
	.st0{fill:url(#SVGID_1_);}
	.st1{fill:url(#SVGID_00000129927368924339376600000000436827983997134765_);}
	.st2{fill:url(#SVGID_00000034774393757699572370000012435430179658388130_);}
	.st3{fill:url(#SVGID_00000080183423998724516300000008871941899278949007_);}
	.st4{fill:url(#SVGID_00000048501988345038436530000004384002807150484646_);}
	.st5{fill:url(#SVGID_00000165929237545358906910000013663533651062951603_);}
	.st6{fill:url(#SVGID_00000140702373702004758140000017979952343429642917_);}
	.st7{fill:url(#SVGID_00000051385407883593920060000014562561547346040977_);}
	.st8{fill:url(#SVGID_00000022546564831728406810000018335866257681170077_);}
	.st9{fill:url(#SVGID_00000068646809409328307120000000761644191789668254_);}
	.st10{fill:url(#SVGID_00000140709319689751485130000016847122491716463035_);}
	.st11{fill:url(#SVGID_00000059273908532134767240000001789065692389950869_);}
	.st12{fill:url(#SVGID_00000150817246223341349410000013003383020687682984_);}
	.st13{fill:url(#SVGID_00000182509061051052418230000011033669978040867515_);}
	.st14{fill:url(#SVGID_00000134959834796846782780000001094689774941518271_);}
	.st15{fill:url(#SVGID_00000041273877936992891370000004554848970086102948_);}
	.st16{fill:url(#SVGID_00000048479018757892814360000003786920749662194579_);}
	.st17{fill:url(#SVGID_00000064334812902753102050000008839307750048727211_);}
	.st18{fill:url(#SVGID_00000092429503436894666340000006329102176339897273_);}
	.st19{fill:url(#SVGID_00000119088502779731460710000015072500011956780457_);}
	.st20{fill:url(#SVGID_00000052067647533143382650000008041587593888758179_);}
	.st21{fill:url(#SVGID_00000058567180572513086250000016295018241323453627_);}
	.st22{fill:url(#SVGID_00000108297902683862148550000001389791617377067675_);}
</style>
<g>
	<linearGradient id="SVGID_1_" gradientUnits="userSpaceOnUse" x1="1031.7786" y1="588.7898" x2="1031.7786" y2="616.8325">
		<stop  offset="0" style="stop-color:#612678"/>
		<stop  offset="7.643201e-02" style="stop-color:#6D277D"/>
		<stop  offset="0.2347" style="stop-color:#802884"/>
		<stop  offset="0.3977" style="stop-color:#8B2989"/>
		<stop  offset="0.5712" style="stop-color:#8F298A"/>
	</linearGradient>
	<rect x="1015.9" y="588.8" class="st0" width="31.7" height="28"/>
	<g>
		
			<linearGradient id="SVGID_00000179617230913642421870000000371333961574927239_" gradientUnits="userSpaceOnUse" x1="1619.0692" y1="560.7689" x2="1619.0692" y2="588.7898">
			<stop  offset="9.616871e-04" style="stop-color:#2B2B2B"/>
			<stop  offset="0.5017" style="stop-color:#282827"/>
			<stop  offset="1" style="stop-color:#20201F"/>
		</linearGradient>
		
			<rect x="1587.3" y="560.8" style="fill:url(#SVGID_00000179617230913642421870000000371333961574927239_);" width="63.5" height="28"/>
	</g>
	<g>
		
			<linearGradient id="SVGID_00000021823853433945933050000003401569321335319696_" gradientUnits="userSpaceOnUse" x1="1682.5533" y1="588.7898" x2="1682.5533" y2="644.8752">
			<stop  offset="9.616871e-04" style="stop-color:#242424"/>
			<stop  offset="0.51" style="stop-color:#1C1C1C"/>
			<stop  offset="1" style="stop-color:#060807"/>
		</linearGradient>
		<polygon style="fill:url(#SVGID_00000021823853433945933050000003401569321335319696_);" points="1619.1,616.8 1619.1,644.9 
			1746.1,644.9 1746.1,616.8 1714.3,616.8 1714.3,588.8 1650.8,588.8 1650.8,616.8 		"/>
	</g>
	<g>
		
			<linearGradient id="SVGID_00000015325011450978741010000007533836633800134074_" gradientUnits="userSpaceOnUse" x1="111.1192" y1="1.904098e-05" x2="111.1192" y2="392.6867">
			<stop  offset="0" style="stop-color:#CDBB2C"/>
			<stop  offset="0.3579" style="stop-color:#ED4D30"/>
			<stop  offset="0.6957" style="stop-color:#259893"/>
			<stop  offset="0.9219" style="stop-color:#CCACB2"/>
		</linearGradient>
		<polygon style="fill:url(#SVGID_00000015325011450978741010000007533836633800134074_);" points="95.3,0 0,0 0,252.3 95.3,252.3 
			95.3,332.2 0,332.2 0,392.7 95.3,392.7 127,392.7 222.2,392.7 222.2,332.2 127,332.2 127,252.3 222.2,252.3 222.2,0 127,0 		"/>
	</g>
	
		<linearGradient id="SVGID_00000148623636118949460760000002112444648147467175_" gradientUnits="userSpaceOnUse" x1="365.0818" y1="224.2982" x2="365.0818" y2="1.904098e-05">
		<stop  offset="0.1848" style="stop-color:#E1D0BB"/>
		<stop  offset="0.3148" style="stop-color:#DEE02F"/>
		<stop  offset="0.459" style="stop-color:#7BCCD9"/>
		<stop  offset="0.7501" style="stop-color:#EFABCB"/>
		<stop  offset="0.9448" style="stop-color:#EC555B"/>
	</linearGradient>
	<polygon style="fill:url(#SVGID_00000148623636118949460760000002112444648147467175_);" points="349.2,140.2 381,140.2 381,196.3 
		444.4,196.3 444.4,224.3 476.2,224.3 476.2,196.3 476.2,168.2 476.2,0 444.4,0 444.4,140.2 412.7,140.2 412.7,112.1 381,112.1 
		381,84.1 349.2,84.1 349.2,0 254,0 254,28 254,56.1 254,224.3 349.2,224.3 	"/>
	<g>
		
			<linearGradient id="SVGID_00000019643111576610959650000014873761570416010405_" gradientUnits="userSpaceOnUse" x1="873.0582" y1="1.904098e-05" x2="873.0582" y2="224.2982">
			<stop  offset="0" style="stop-color:#CADB67"/>
			<stop  offset="0.2631" style="stop-color:#EB4B50"/>
			<stop  offset="0.3849" style="stop-color:#DE3C6F"/>
			<stop  offset="0.5849" style="stop-color:#6B6275"/>
			<stop  offset="0.6034" style="stop-color:#576778"/>
			<stop  offset="0.6427" style="stop-color:#33717D"/>
			<stop  offset="0.6745" style="stop-color:#1C7781"/>
			<stop  offset="0.6947" style="stop-color:#147982"/>
			<stop  offset="0.7321" style="stop-color:#105D65"/>
			<stop  offset="0.7698" style="stop-color:#0D484F"/>
			<stop  offset="0.806" style="stop-color:#0B3B41"/>
			<stop  offset="0.839" style="stop-color:#0A373D"/>
		</linearGradient>
		<polygon style="fill:url(#SVGID_00000019643111576610959650000014873761570416010405_);" points="888.9,224.3 984.2,224.3 
			984.2,140.2 888.9,140.2 888.9,112.1 920.7,112.1 920.7,28 984.2,28 984.2,0 888.9,0 857.2,0 761.9,0 761.9,56.1 857.2,56.1 
			857.2,112.1 857.2,140.2 761.9,140.2 761.9,224.3 857.2,224.3 		"/>
	</g>
	
		<linearGradient id="SVGID_00000024684652473636523910000017849855830926727606_" gradientUnits="userSpaceOnUse" x1="1127.0464" y1="1.904098e-05" x2="1127.0464" y2="392.4464">
		<stop  offset="0.2638" style="stop-color:#988871"/>
		<stop  offset="0.331" style="stop-color:#88917F"/>
		<stop  offset="0.4612" style="stop-color:#5FA7A3"/>
		<stop  offset="0.5743" style="stop-color:#37BDC7"/>
		<stop  offset="0.7159" style="stop-color:#80C044"/>
		<stop  offset="0.8802" style="stop-color:#F8AD3B"/>
		<stop  offset="0.8993" style="stop-color:#F6A056"/>
		<stop  offset="0.9281" style="stop-color:#F39079"/>
		<stop  offset="0.9554" style="stop-color:#F18492"/>
		<stop  offset="0.9801" style="stop-color:#EF7DA2"/>
		<stop  offset="1" style="stop-color:#EF7AA7"/>
	</linearGradient>
	<polyline style="fill:url(#SVGID_00000024684652473636523910000017849855830926727606_);" points="1047.7,280.2 1111.2,280.2 
		1111.2,332.2 1174.7,332.2 1174.7,364.4 1206.4,364.4 1206.4,392.4 1238.2,392.4 1238.2,364.4 1238.2,168.2 1238.2,0 1206.4,0 
		1206.4,140.2 1174.7,140.2 1174.7,112.1 1142.9,112.1 1142.9,84.1 1111.2,84.1 1111.2,56.1 1079.5,56.1 1079.5,28 1047.6,28 
		1047.6,0 1015.9,0 1015.9,28 1015.9,56.1 1015.9,392.4 1047.6,392.4 1047.6,280.2 	"/>
	
		<linearGradient id="SVGID_00000096051006111098562570000011183718368389685136_" gradientUnits="userSpaceOnUse" x1="1380.9308" y1="1.904098e-05" x2="1380.9308" y2="224.2982">
		<stop  offset="8.434466e-02" style="stop-color:#2A150B"/>
		<stop  offset="0.3" style="stop-color:#3F1E12"/>
		<stop  offset="0.6223" style="stop-color:#AC2F24"/>
		<stop  offset="0.7746" style="stop-color:#F5941E"/>
		<stop  offset="1" style="stop-color:#08A1A7"/>
	</linearGradient>
	<polygon style="fill:url(#SVGID_00000096051006111098562570000011183718368389685136_);" points="1460.3,224.3 1492,224.3 
		1492,196.3 1460.3,196.3 1460.3,28 1492,28 1492,0 1460.3,0 1301.6,0 1269.8,0 1269.8,28 1301.6,28 1301.6,196.3 1269.8,196.3 
		1269.8,224.3 1301.6,224.3 	"/>
	
		<linearGradient id="SVGID_00000004531471602957614640000011190400783031038092_" gradientUnits="userSpaceOnUse" x1="1888.8689" y1="1.904098e-05" x2="1888.8689" y2="224.2982">
		<stop  offset="0" style="stop-color:#E1E1E1"/>
		<stop  offset="0.1985" style="stop-color:#9ABDDC"/>
		<stop  offset="0.4843" style="stop-color:#0273B9"/>
		<stop  offset="0.8281" style="stop-color:#1B194D"/>
		<stop  offset="1" style="stop-color:#0E1035"/>
	</linearGradient>
	<polygon style="fill:url(#SVGID_00000004531471602957614640000011190400783031038092_);" points="2000,56.1 2000,0 1809.5,0 
		1777.8,0 1777.8,56.1 1777.8,84.1 1777.7,84.1 1777.7,112.1 1777.8,112.1 1777.8,126.2 1777.8,168.2 1777.7,168.2 1777.7,196.3 
		1777.8,196.3 1777.8,210.3 1777.8,224.3 1809.5,224.3 2000,224.3 2000,210.3 2000,196.3 1968.2,196.3 1968.2,168.2 1809.5,168.2 
		1809.5,126.2 1809.5,112.1 1888.9,112.1 1888.9,84.1 1809.5,84.1 1809.5,56.1 	"/>
	
		<linearGradient id="SVGID_00000072278985136493058820000010025472759041966500_" gradientUnits="userSpaceOnUse" x1="111.1183" y1="420.5657" x2="111.1183" y2="644.8752">
		<stop  offset="0" style="stop-color:#E8AA6C"/>
		<stop  offset="0.1296" style="stop-color:#C3805B"/>
		<stop  offset="0.2296" style="stop-color:#DEAC76"/>
		<stop  offset="0.2314" style="stop-color:#DEAC77"/>
		<stop  offset="0.3542" style="stop-color:#F0CA7C"/>
		<stop  offset="0.468" style="stop-color:#DF9A50"/>
		<stop  offset="1" style="stop-color:#8CCFC0"/>
	</linearGradient>
	<path style="fill:url(#SVGID_00000072278985136493058820000010025472759041966500_);" d="M190.5,448.6h-31.8v-28H95.3v0H0v0v56.1
		v28v28.1h35.7v28H0v84.1h71.4v-84.1h119v-28h31.8V420.6h-31.8V448.6z M190.5,504.7h-31.8v28H95.3v-28.1h63.5v-28h31.8V504.7z"/>
	
		<linearGradient id="SVGID_00000127006800367267292350000013899164561542855093_" gradientUnits="userSpaceOnUse" x1="365.081" y1="252.2005" x2="365.081" y2="644.8752">
		<stop  offset="0" style="stop-color:#CCA998"/>
		<stop  offset="0.5118" style="stop-color:#EA8DB9"/>
		<stop  offset="1" style="stop-color:#6DAE99"/>
	</linearGradient>
	<path style="fill:url(#SVGID_00000127006800367267292350000013899164561542855093_);" d="M444.4,252.2H285.7H254v28v28v224.5v112.1
		h31.8v-84.1h31.8v28H381v56.1h63.5l0,0h31.8v-28h-31.8V504.6h-31.7v-84.1h31.7h31.8V280.2h-31.8V252.2z M381,420.5L381,420.5v84.2
		v28.1h-31.8V308.3h-63.5v-28H381V420.5z"/>
	
		<linearGradient id="SVGID_00000152240620830733765380000011626606854903307953_" gradientUnits="userSpaceOnUse" x1="619.0573" y1="308.2206" x2="619.0573" y2="644.8752">
		<stop  offset="0" style="stop-color:#4BC4E5"/>
		<stop  offset="0.333" style="stop-color:#EA1971"/>
		<stop  offset="0.3955" style="stop-color:#E32076"/>
		<stop  offset="0.4832" style="stop-color:#D13282"/>
		<stop  offset="0.5858" style="stop-color:#B35097"/>
		<stop  offset="0.6989" style="stop-color:#8A79B4"/>
		<stop  offset="0.7062" style="stop-color:#877CB6"/>
		<stop  offset="0.9374" style="stop-color:#EF737F"/>
	</linearGradient>
	<polygon style="fill:url(#SVGID_00000152240620830733765380000011626606854903307953_);" points="696.8,588.8 539.7,588.8 
		539.7,532.7 696.8,532.7 730.2,532.7 730.2,504.7 696.8,504.7 619.1,504.7 619.1,448.6 696.8,448.6 730.2,448.6 730.2,308.2 
		567.1,308.2 567.1,420.6 508,420.6 508,448.6 476.2,448.6 476.2,504.7 508,504.7 508,532.7 476.2,532.7 476.2,616.8 508,616.8 
		508,644.9 696.8,644.9 761.9,644.9 761.9,616.8 696.8,616.8 	"/>
	<g>
		
			<linearGradient id="SVGID_00000097464351776553937640000008988230215093027001_" gradientUnits="userSpaceOnUse" x1="888.9088" y1="532.7261" x2="888.9088" y2="644.8752">
			<stop  offset="0" style="stop-color:#F8242B"/>
			<stop  offset="0.1555" style="stop-color:#C32429"/>
			<stop  offset="0.3592" style="stop-color:#842527"/>
			<stop  offset="0.5082" style="stop-color:#5C2526"/>
			<stop  offset="0.5855" style="stop-color:#4D2525"/>
			<stop  offset="0.7536" style="stop-color:#301717"/>
			<stop  offset="1" style="stop-color:#000000"/>
		</linearGradient>
		<polygon style="fill:url(#SVGID_00000097464351776553937640000008988230215093027001_);" points="857.2,616.8 793.7,616.8 
			793.7,644.9 952.4,644.9 952.4,616.8 984.2,616.8 984.2,532.7 857.2,532.7 		"/>
	</g>
	<rect x="761.9" y="588.8" width="31.8" height="28"/>
	<g>
		
			<linearGradient id="SVGID_00000021108023314515324430000009873068917778935193_" gradientUnits="userSpaceOnUse" x1="809.5546" y1="280.2094" x2="809.5546" y2="532.7261">
			<stop  offset="0" style="stop-color:#B6A95E"/>
			<stop  offset="7.313816e-02" style="stop-color:#C6804E"/>
			<stop  offset="0.2511" style="stop-color:#DA5841"/>
			<stop  offset="0.6098" style="stop-color:#E43E38"/>
		</linearGradient>
		<polygon style="fill:url(#SVGID_00000021108023314515324430000009873068917778935193_);" points="793.7,308.3 793.7,280.2 
			761.9,280.2 761.9,504.7 793.7,504.7 793.7,532.7 857.2,532.7 857.2,308.3 		"/>
	</g>
	<g>
		
			<linearGradient id="SVGID_00000050638228735724389340000008683369019686707102_" gradientUnits="userSpaceOnUse" x1="888.9088" y1="252.1885" x2="888.9088" y2="392.6867">
			<stop  offset="0" style="stop-color:#CDC690"/>
			<stop  offset="0.1539" style="stop-color:#B6A95E"/>
			<stop  offset="0.338" style="stop-color:#C6804E"/>
			<stop  offset="0.7321" style="stop-color:#DA5841"/>
			<stop  offset="0.942" style="stop-color:#E43E38"/>
		</linearGradient>
		<polygon style="fill:url(#SVGID_00000050638228735724389340000008683369019686707102_);" points="888.9,392.7 984.2,392.7 
			984.2,280.2 952.4,280.2 952.4,252.2 793.7,252.2 793.7,280.2 888.9,280.2 		"/>
	</g>
	
		<linearGradient id="SVGID_00000110428991123683999480000004242212615873151156_" gradientUnits="userSpaceOnUse" x1="1063.53" y1="420.577" x2="1063.53" y2="644.8752">
		<stop  offset="0" style="stop-color:#808082"/>
		<stop  offset="0.4361" style="stop-color:#28A8DF"/>
		<stop  offset="0.6013" style="stop-color:#2867A0"/>
		<stop  offset="0.7376" style="stop-color:#293773"/>
		<stop  offset="0.8053" style="stop-color:#292561"/>
		<stop  offset="0.8806" style="stop-color:#8F298A"/>
		<stop  offset="1" style="stop-color:#EC4237"/>
	</linearGradient>
	<polygon style="fill:url(#SVGID_00000110428991123683999480000004242212615873151156_);" points="952.4,420.6 952.4,448.6 
		888.9,448.6 888.9,504.7 1015.9,504.7 1015.9,560.8 1142.9,560.8 1142.9,616.8 1047.6,616.8 1047.6,644.9 1206.4,644.9 
		1206.4,616.8 1238.1,616.8 1238.1,560.8 1206.4,560.8 1206.4,504.7 1111.2,504.7 1111.2,448.6 1206.4,448.6 1206.4,420.6 	"/>
	
		<linearGradient id="SVGID_00000030447336085705718340000009385177589621927050_" gradientUnits="userSpaceOnUse" x1="1222.2368" y1="448.5972" x2="1222.2368" y2="476.6399">
		<stop  offset="0" style="stop-color:#808082"/>
		<stop  offset="0.341" style="stop-color:#7E8184"/>
		<stop  offset="0.5254" style="stop-color:#76848C"/>
		<stop  offset="0.6723" style="stop-color:#698A9A"/>
		<stop  offset="0.7995" style="stop-color:#5793AD"/>
		<stop  offset="0.9127" style="stop-color:#409DC6"/>
		<stop  offset="1" style="stop-color:#28A8DF"/>
	</linearGradient>
	
		<rect x="1206.4" y="448.6" style="fill:url(#SVGID_00000030447336085705718340000009385177589621927050_);" width="31.8" height="28"/>
	
		<linearGradient id="SVGID_00000093176951360825995700000001454662275280968364_" gradientUnits="userSpaceOnUse" x1="1285.7405" y1="252.2486" x2="1285.7405" y2="616.8325">
		<stop  offset="0" style="stop-color:#387ABB"/>
		<stop  offset="0.2953" style="stop-color:#52B549"/>
		<stop  offset="0.4954" style="stop-color:#DEE01D"/>
		<stop  offset="0.7937" style="stop-color:#EF683A"/>
		<stop  offset="1" style="stop-color:#EA1D7F"/>
	</linearGradient>
	
		<rect x="1269.9" y="252.2" style="fill:url(#SVGID_00000093176951360825995700000001454662275280968364_);" width="31.8" height="364.6"/>
	
		<linearGradient id="SVGID_00000039117519406128569160000002223922240306776480_" gradientUnits="userSpaceOnUse" x1="1396.8579" y1="252.2486" x2="1396.8579" y2="644.8752">
		<stop  offset="0" style="stop-color:#387ABB"/>
		<stop  offset="0.2953" style="stop-color:#52B549"/>
		<stop  offset="0.4954" style="stop-color:#DEE01D"/>
		<stop  offset="0.7937" style="stop-color:#EF683A"/>
		<stop  offset="1" style="stop-color:#EA1D7F"/>
	</linearGradient>
	<polygon style="fill:url(#SVGID_00000039117519406128569160000002223922240306776480_);" points="1396.8,434.6 1365.1,434.6 
		1365.1,616.8 1301.6,616.8 1301.6,644.9 1460.3,644.9 1460.3,616.8 1492.1,616.8 1492.1,434.6 1492.1,252.2 1396.8,252.2 	"/>
	<g>
		
			<linearGradient id="SVGID_00000018215750637921609310000018068733437254943131_" gradientUnits="userSpaceOnUse" x1="1634.9326" y1="420.577" x2="1634.9326" y2="644.8752">
			<stop  offset="9.616871e-04" style="stop-color:#636363"/>
			<stop  offset="0.5017" style="stop-color:#333333"/>
			<stop  offset="0.8321" style="stop-color:#20201F"/>
			<stop  offset="1" style="stop-color:#060807"/>
		</linearGradient>
		<polygon style="fill:url(#SVGID_00000018215750637921609310000018068733437254943131_);" points="1714.3,476.6 1555.6,476.6 
			1555.6,448.6 1714.3,448.6 1714.3,420.6 1555.6,420.6 1523.8,420.6 1523.8,448.6 1523.8,476.6 1523.8,532.7 1523.8,644.9 
			1555.6,644.9 1555.6,560.8 1587.3,560.8 1587.3,532.7 1714.3,532.7 1714.3,560.8 1746.1,560.8 1746.1,448.6 1714.3,448.6 		"/>
	</g>
	
		<linearGradient id="SVGID_00000152987126552620535210000015350593409840576384_" gradientUnits="userSpaceOnUse" x1="1873.0251" y1="252.2982" x2="1873.0251" y2="644.9631">
		<stop  offset="9.636904e-03" style="stop-color:#0A373D"/>
		<stop  offset="0.1145" style="stop-color:#793653"/>
		<stop  offset="0.2124" style="stop-color:#DB3337"/>
		<stop  offset="0.5873" style="stop-color:#D2D489"/>
		<stop  offset="0.683" style="stop-color:#BAD674"/>
		<stop  offset="0.8493" style="stop-color:#DAC2B0"/>
		<stop  offset="0.9857" style="stop-color:#D1D8C6"/>
	</linearGradient>
	<polygon style="fill:url(#SVGID_00000152987126552620535210000015350593409840576384_);" points="1777.8,252.3 1777.8,280.3 
		1777.8,308.3 1746.1,308.3 1746.1,448.6 1777.8,448.6 1777.8,532.7 1809.5,532.7 1809.5,588.8 1777.8,588.8 1777.8,644.9 
		1777.8,645 2000,645 2000,644.9 2000,644.9 2000,616.8 2000,588.8 1968.2,588.8 1968.2,616.8 1888.9,616.8 1888.9,588.8 
		1849.2,588.8 1849.2,532.7 1888.9,532.7 1888.9,504.7 1944.4,504.7 1944.4,448.6 1888.9,448.6 1888.9,420.5 1849.2,420.5 
		1849.2,308.3 1888.9,308.3 1888.9,280.3 1944.4,280.3 1944.4,448.6 2000,448.6 2000,252.3 1944.4,252.3 	"/>
	<g>
		
			<linearGradient id="SVGID_00000053509847961728264750000011072351564217866428_" gradientUnits="userSpaceOnUse" x1="619.0692" y1="1.904098e-05" x2="619.0692" y2="392.6867">
			<stop  offset="6.130771e-02" style="stop-color:#FAEDC0"/>
			<stop  offset="0.1384" style="stop-color:#F9C846"/>
			<stop  offset="0.3596" style="stop-color:#9D5925"/>
			<stop  offset="0.5576" style="stop-color:#61A75C"/>
			<stop  offset="0.5923" style="stop-color:#54B870"/>
			<stop  offset="0.6751" style="stop-color:#A5CE5E"/>
			<stop  offset="0.7571" style="stop-color:#F9D24E"/>
			<stop  offset="0.8809" style="stop-color:#F3BB3E"/>
			<stop  offset="0.9995" style="stop-color:#CB882A"/>
		</linearGradient>
		<polygon style="fill:url(#SVGID_00000053509847961728264750000011072351564217866428_);" points="539.7,0 508,0 508,28 508,112.1 
			508,224.3 508,392.7 539.7,392.7 539.7,280.2 730.2,280.2 730.2,112.1 619.1,112.1 619.1,56.1 563.5,56.1 563.5,28 698.4,28 
			698.4,84.1 730.2,84.1 730.2,28 730.2,28 730.2,0 		"/>
	</g>
	
		<linearGradient id="SVGID_00000057130256989285585370000008845941101539160204_" gradientUnits="userSpaceOnUse" x1="1634.9189" y1="392.4464" x2="1634.9189" y2="1.904098e-05">
		<stop  offset="0" style="stop-color:#ED527A"/>
		<stop  offset="0.3765" style="stop-color:#B85D84"/>
		<stop  offset="1" style="stop-color:#CC8767"/>
	</linearGradient>
	<polygon style="fill:url(#SVGID_00000057130256989285585370000008845941101539160204_);" points="1587.3,196.3 1619.1,196.3 
		1619.1,252.3 1619.1,392.4 1650.8,392.4 1650.8,252.3 1650.8,196.3 1682.5,196.3 1682.5,252.3 1746,252.3 1746,28 1714.3,28 
		1714.3,0 1650.8,0 1619.1,0 1555.6,0 1555.6,28 1523.8,28 1523.8,252.3 1587.3,252.3 	"/>
</g>
</svg>
